<svg width="166" height="34" viewBox="0 0 166 34" fill="none" xmlns="http://www.w3.org/2000/svg">
<rect width="166" height="34" rx="6" fill="#E3FFEF"/>
<path fill-rule="evenodd" clip-rule="evenodd" d="M22.1594 10H23.8461V15.7296C23.8605 16.0506 24.0191 16.1628 24.2651 16.1594H30V17.8408H24.2595C23.9431 17.8609 23.8533 17.9767 23.846 18.2651V24H22.1593V18.2595C22.1576 17.9905 22.0285 17.8428 21.773 17.8405H16V16.1592H21.7458C22.0434 16.1592 22.1437 15.9973 22.1593 15.7402L22.1594 10Z" fill="#30724C"/>
<path d="M39.307 22L42.331 12.2H44.403L47.427 22H46.209L45.453 19.522H41.281L40.525 22H39.307ZM41.575 18.458H45.145L43.465 12.914H43.269L41.575 18.458ZM51.8354 22.196C51.2474 22.196 50.7061 22.056 50.2114 21.776C49.7167 21.496 49.3247 21.09 49.0354 20.558C48.7461 20.026 48.6014 19.396 48.6014 18.668V18.486C48.6014 17.758 48.7461 17.1327 49.0354 16.61C49.3247 16.078 49.7121 15.672 50.1974 15.392C50.6921 15.1027 51.2381 14.958 51.8354 14.958C52.3114 14.958 52.7127 15.0233 53.0394 15.154C53.3754 15.2753 53.6461 15.434 53.8514 15.63C54.0567 15.8167 54.2154 16.0173 54.3274 16.232H54.5234V12.2H55.6294V22H54.5514V20.866H54.3554C54.1687 21.2113 53.8794 21.5193 53.4874 21.79C53.0954 22.0607 52.5447 22.196 51.8354 22.196ZM52.1294 21.216C52.8387 21.216 53.4127 20.992 53.8514 20.544C54.2994 20.0867 54.5234 19.452 54.5234 18.64V18.514C54.5234 17.702 54.2994 17.072 53.8514 16.624C53.4127 16.1667 52.8387 15.938 52.1294 15.938C51.4294 15.938 50.8507 16.1667 50.3934 16.624C49.9454 17.072 49.7214 17.702 49.7214 18.514V18.64C49.7214 19.452 49.9454 20.0867 50.3934 20.544C50.8507 20.992 51.4294 21.216 52.1294 21.216ZM60.8452 22.196C60.2572 22.196 59.7158 22.056 59.2212 21.776C58.7265 21.496 58.3345 21.09 58.0452 20.558C57.7558 20.026 57.6112 19.396 57.6112 18.668V18.486C57.6112 17.758 57.7558 17.1327 58.0452 16.61C58.3345 16.078 58.7218 15.672 59.2072 15.392C59.7018 15.1027 60.2478 14.958 60.8452 14.958C61.3212 14.958 61.7225 15.0233 62.0492 15.154C62.3852 15.2753 62.6558 15.434 62.8612 15.63C63.0665 15.8167 63.2252 16.0173 63.3372 16.232H63.5332V12.2H64.6392V22H63.5612V20.866H63.3652C63.1785 21.2113 62.8892 21.5193 62.4972 21.79C62.1052 22.0607 61.5545 22.196 60.8452 22.196ZM61.1392 21.216C61.8485 21.216 62.4225 20.992 62.8612 20.544C63.3092 20.0867 63.5332 19.452 63.5332 18.64V18.514C63.5332 17.702 63.3092 17.072 62.8612 16.624C62.4225 16.1667 61.8485 15.938 61.1392 15.938C60.4392 15.938 59.8605 16.1667 59.4032 16.624C58.9552 17.072 58.7312 17.702 58.7312 18.514V18.64C58.7312 19.452 58.9552 20.0867 59.4032 20.544C59.8605 20.992 60.4392 21.216 61.1392 21.216ZM70.5106 22V12.2H72.7926L76.2086 21.258H76.3906V12.2H77.5526V22H75.2706L71.8686 12.928H71.6726V22H70.5106ZM82.9855 22.196C82.2948 22.196 81.6882 22.0513 81.1655 21.762C80.6428 21.4633 80.2368 21.048 79.9475 20.516C79.6582 19.984 79.5135 19.368 79.5135 18.668V18.5C79.5135 17.7907 79.6582 17.17 79.9475 16.638C80.2368 16.106 80.6382 15.6953 81.1515 15.406C81.6648 15.1073 82.2528 14.958 82.9155 14.958C83.5595 14.958 84.1288 15.098 84.6235 15.378C85.1182 15.6487 85.5055 16.0407 85.7855 16.554C86.0655 17.0673 86.2055 17.6693 86.2055 18.36V18.864H80.6195C80.6475 19.6013 80.8855 20.18 81.3335 20.6C81.7815 21.0107 82.3415 21.216 83.0135 21.216C83.6015 21.216 84.0542 21.0807 84.3715 20.81C84.6888 20.5393 84.9315 20.2173 85.0995 19.844L86.0515 20.306C85.9115 20.5953 85.7155 20.8847 85.4635 21.174C85.2208 21.4633 84.8988 21.706 84.4975 21.902C84.1055 22.098 83.6015 22.196 82.9855 22.196ZM80.6335 17.954H85.0855C85.0482 17.3193 84.8288 16.8247 84.4275 16.47C84.0355 16.1153 83.5315 15.938 82.9155 15.938C82.2902 15.938 81.7768 16.1153 81.3755 16.47C80.9742 16.8247 80.7268 17.3193 80.6335 17.954ZM88.9499 22L87.5779 15.154H88.6979L89.8319 21.258H90.0279L91.5259 15.154H93.3599L94.8579 21.258H95.0539L96.1879 15.154H97.3079L95.9359 22H94.0459L92.5339 15.896H92.3519L90.8399 22H88.9499ZM102.763 22V12.2H106.515C107.103 12.2 107.625 12.3167 108.083 12.55C108.549 12.774 108.918 13.096 109.189 13.516C109.459 13.936 109.595 14.4447 109.595 15.042V15.224C109.595 15.812 109.455 16.3207 109.175 16.75C108.904 17.17 108.535 17.492 108.069 17.716C107.602 17.94 107.084 18.052 106.515 18.052H103.939V22H102.763ZM103.939 16.988H106.389C107.014 16.988 107.509 16.834 107.873 16.526C108.237 16.2087 108.419 15.7653 108.419 15.196V15.056C108.419 14.4867 108.237 14.048 107.873 13.74C107.518 13.4227 107.023 13.264 106.389 13.264H103.939V16.988ZM111.213 22V15.154H112.291V15.994H112.487C112.608 15.6953 112.795 15.476 113.047 15.336C113.299 15.196 113.63 15.126 114.041 15.126H114.853V16.134H113.971C113.476 16.134 113.075 16.274 112.767 16.554C112.468 16.8247 112.319 17.2493 112.319 17.828V22H111.213ZM119.408 22.196C118.717 22.196 118.106 22.0513 117.574 21.762C117.051 21.4727 116.641 21.0667 116.342 20.544C116.053 20.012 115.908 19.3867 115.908 18.668V18.486C115.908 17.7767 116.053 17.156 116.342 16.624C116.641 16.092 117.051 15.6813 117.574 15.392C118.106 15.1027 118.717 14.958 119.408 14.958C120.099 14.958 120.705 15.1027 121.228 15.392C121.76 15.6813 122.171 16.092 122.46 16.624C122.759 17.156 122.908 17.7767 122.908 18.486V18.668C122.908 19.3867 122.759 20.012 122.46 20.544C122.171 21.0667 121.76 21.4727 121.228 21.762C120.705 22.0513 120.099 22.196 119.408 22.196ZM119.408 21.202C120.136 21.202 120.715 20.9733 121.144 20.516C121.583 20.0493 121.802 19.424 121.802 18.64V18.514C121.802 17.73 121.583 17.1093 121.144 16.652C120.715 16.1853 120.136 15.952 119.408 15.952C118.689 15.952 118.111 16.1853 117.672 16.652C117.233 17.1093 117.014 17.73 117.014 18.514V18.64C117.014 19.424 117.233 20.0493 117.672 20.516C118.111 20.9733 118.689 21.202 119.408 21.202ZM123.554 24.8V23.82H124.506C124.786 23.82 124.926 23.68 124.926 23.4V15.154H126.032V23.596C126.032 23.9693 125.925 24.2633 125.71 24.478C125.505 24.6927 125.206 24.8 124.814 24.8H123.554ZM125.486 14.09C125.244 14.09 125.038 14.0107 124.87 13.852C124.712 13.6933 124.632 13.4927 124.632 13.25C124.632 12.998 124.712 12.7927 124.87 12.634C125.038 12.4753 125.244 12.396 125.486 12.396C125.729 12.396 125.93 12.4753 126.088 12.634C126.247 12.7927 126.326 12.998 126.326 13.25C126.326 13.4927 126.247 13.6933 126.088 13.852C125.93 14.0107 125.729 14.09 125.486 14.09ZM131.493 22.196C130.803 22.196 130.196 22.0513 129.673 21.762C129.151 21.4633 128.745 21.048 128.455 20.516C128.166 19.984 128.021 19.368 128.021 18.668V18.5C128.021 17.7907 128.166 17.17 128.455 16.638C128.745 16.106 129.146 15.6953 129.659 15.406C130.173 15.1073 130.761 14.958 131.423 14.958C132.067 14.958 132.637 15.098 133.131 15.378C133.626 15.6487 134.013 16.0407 134.293 16.554C134.573 17.0673 134.713 17.6693 134.713 18.36V18.864H129.127C129.155 19.6013 129.393 20.18 129.841 20.6C130.289 21.0107 130.849 21.216 131.521 21.216C132.109 21.216 132.562 21.0807 132.879 20.81C133.197 20.5393 133.439 20.2173 133.607 19.844L134.559 20.306C134.419 20.5953 134.223 20.8847 133.971 21.174C133.729 21.4633 133.407 21.706 133.005 21.902C132.613 22.098 132.109 22.196 131.493 22.196ZM129.141 17.954H133.593C133.556 17.3193 133.337 16.8247 132.935 16.47C132.543 16.1153 132.039 15.938 131.423 15.938C130.798 15.938 130.285 16.1153 129.883 16.47C129.482 16.8247 129.235 17.3193 129.141 17.954ZM139.792 22.196C139.13 22.196 138.532 22.056 138 21.776C137.478 21.4867 137.062 21.076 136.754 20.544C136.456 20.012 136.306 19.382 136.306 18.654V18.5C136.306 17.7627 136.456 17.1327 136.754 16.61C137.062 16.078 137.478 15.672 138 15.392C138.532 15.1027 139.13 14.958 139.792 14.958C140.446 14.958 141.001 15.0793 141.458 15.322C141.925 15.5647 142.289 15.8867 142.55 16.288C142.821 16.6893 142.994 17.1187 143.068 17.576L141.99 17.8C141.944 17.464 141.832 17.156 141.654 16.876C141.486 16.596 141.248 16.372 140.94 16.204C140.632 16.036 140.254 15.952 139.806 15.952C139.349 15.952 138.938 16.0547 138.574 16.26C138.22 16.4653 137.935 16.7593 137.72 17.142C137.515 17.5247 137.412 17.982 137.412 18.514V18.64C137.412 19.172 137.515 19.6293 137.72 20.012C137.935 20.3947 138.22 20.6887 138.574 20.894C138.938 21.0993 139.349 21.202 139.806 21.202C140.488 21.202 141.006 21.0247 141.36 20.67C141.724 20.3153 141.948 19.8767 142.032 19.354L143.124 19.592C143.022 20.04 142.835 20.4647 142.564 20.866C142.294 21.2673 141.925 21.5893 141.458 21.832C141.001 22.0747 140.446 22.196 139.792 22.196ZM147.243 22C146.851 22 146.547 21.8927 146.333 21.678C146.127 21.4633 146.025 21.1693 146.025 20.796V16.12H143.967V15.154H146.025V12.718H147.131V15.154H149.371V16.12H147.131V20.628C147.131 20.908 147.266 21.048 147.537 21.048H149.063V22H147.243Z" fill="#30724C"/>
</svg>
