<svg width="92" height="46" viewBox="0 0 92 46" fill="none" xmlns="http://www.w3.org/2000/svg">
<path d="M0.35 42L3.374 32.2H5.446L8.47 42H7.252L6.496 39.522H2.324L1.568 42H0.35ZM2.618 38.458H6.188L4.508 32.914H4.312L2.618 38.458ZM12.8784 42.196C12.2904 42.196 11.749 42.056 11.2544 41.776C10.7597 41.496 10.3677 41.09 10.0784 40.558C9.78903 40.026 9.64436 39.396 9.64436 38.668V38.486C9.64436 37.758 9.78903 37.1327 10.0784 36.61C10.3677 36.078 10.755 35.672 11.2404 35.392C11.735 35.1027 12.281 34.958 12.8784 34.958C13.3544 34.958 13.7557 35.0233 14.0824 35.154C14.4184 35.2753 14.689 35.434 14.8944 35.63C15.0997 35.8167 15.2584 36.0173 15.3704 36.232H15.5664V32.2H16.6724V42H15.5944V40.866H15.3984C15.2117 41.2113 14.9224 41.5193 14.5304 41.79C14.1384 42.0607 13.5877 42.196 12.8784 42.196ZM13.1724 41.216C13.8817 41.216 14.4557 40.992 14.8944 40.544C15.3424 40.0867 15.5664 39.452 15.5664 38.64V38.514C15.5664 37.702 15.3424 37.072 14.8944 36.624C14.4557 36.1667 13.8817 35.938 13.1724 35.938C12.4724 35.938 11.8937 36.1667 11.4364 36.624C10.9884 37.072 10.7644 37.702 10.7644 38.514V38.64C10.7644 39.452 10.9884 40.0867 11.4364 40.544C11.8937 40.992 12.4724 41.216 13.1724 41.216ZM21.8881 42.196C21.3001 42.196 20.7588 42.056 20.2641 41.776C19.7695 41.496 19.3775 41.09 19.0881 40.558C18.7988 40.026 18.6541 39.396 18.6541 38.668V38.486C18.6541 37.758 18.7988 37.1327 19.0881 36.61C19.3775 36.078 19.7648 35.672 20.2501 35.392C20.7448 35.1027 21.2908 34.958 21.8881 34.958C22.3641 34.958 22.7655 35.0233 23.0921 35.154C23.4281 35.2753 23.6988 35.434 23.9041 35.63C24.1095 35.8167 24.2681 36.0173 24.3801 36.232H24.5761V32.2H25.6821V42H24.6041V40.866H24.4081C24.2215 41.2113 23.9321 41.5193 23.5401 41.79C23.1481 42.0607 22.5975 42.196 21.8881 42.196ZM22.1821 41.216C22.8915 41.216 23.4655 40.992 23.9041 40.544C24.3521 40.0867 24.5761 39.452 24.5761 38.64V38.514C24.5761 37.702 24.3521 37.072 23.9041 36.624C23.4655 36.1667 22.8915 35.938 22.1821 35.938C21.4821 35.938 20.9035 36.1667 20.4461 36.624C19.9981 37.072 19.7741 37.702 19.7741 38.514V38.64C19.7741 39.452 19.9981 40.0867 20.4461 40.544C20.9035 40.992 21.4821 41.216 22.1821 41.216ZM33.6956 42.196C33.2196 42.196 32.7856 42.112 32.3936 41.944C32.0016 41.776 31.6936 41.5333 31.4696 41.216C31.2456 40.8987 31.1336 40.5113 31.1336 40.054C31.1336 39.5873 31.2456 39.2047 31.4696 38.906C31.6936 38.598 32.0016 38.3693 32.3936 38.22C32.7856 38.0613 33.2243 37.982 33.7096 37.982H36.0196V37.478C36.0196 36.9927 35.8749 36.61 35.5856 36.33C35.3056 36.05 34.8856 35.91 34.3256 35.91C33.7749 35.91 33.3456 36.0453 33.0376 36.316C32.7296 36.5773 32.5196 36.932 32.4076 37.38L31.3716 37.044C31.4836 36.6613 31.6609 36.316 31.9036 36.008C32.1463 35.6907 32.4683 35.4387 32.8696 35.252C33.2803 35.056 33.7703 34.958 34.3396 34.958C35.2169 34.958 35.8983 35.1867 36.3836 35.644C36.8689 36.092 37.1116 36.7267 37.1116 37.548V40.642C37.1116 40.922 37.2423 41.062 37.5036 41.062H38.1336V42H37.1676C36.8596 42 36.6123 41.916 36.4256 41.748C36.2389 41.5707 36.1456 41.3373 36.1456 41.048V40.978H35.9776C35.8749 41.1553 35.7349 41.342 35.5576 41.538C35.3896 41.7247 35.1563 41.8787 34.8576 42C34.5589 42.1307 34.1716 42.196 33.6956 42.196ZM33.8216 41.244C34.4749 41.244 35.0023 41.0527 35.4036 40.67C35.8143 40.278 36.0196 39.732 36.0196 39.032V38.878H33.7516C33.3129 38.878 32.9489 38.976 32.6596 39.172C32.3796 39.3587 32.2396 39.6433 32.2396 40.026C32.2396 40.4087 32.3843 40.7073 32.6736 40.922C32.9723 41.1367 33.3549 41.244 33.8216 41.244ZM39.6483 42V35.154H40.7263V36.316H40.9223C41.0717 35.9893 41.3237 35.6953 41.6783 35.434C42.0423 35.1633 42.5743 35.028 43.2743 35.028C43.7877 35.028 44.245 35.1353 44.6463 35.35C45.057 35.5647 45.3837 35.882 45.6263 36.302C45.869 36.722 45.9903 37.24 45.9903 37.856V42H44.8843V37.94C44.8843 37.2587 44.7117 36.764 44.3663 36.456C44.0303 36.148 43.573 35.994 42.9943 35.994C42.3317 35.994 41.7903 36.2087 41.3703 36.638C40.9597 37.0673 40.7543 37.7067 40.7543 38.556V42H39.6483ZM51.788 42V32.2H52.964V42H51.788ZM55.2479 42V35.154H56.3259V36.008H56.5219C56.6526 35.7653 56.8673 35.5413 57.1659 35.336C57.4646 35.1307 57.8846 35.028 58.4259 35.028C58.9579 35.028 59.3873 35.1447 59.7139 35.378C60.0499 35.6113 60.2926 35.896 60.4419 36.232H60.6379C60.7966 35.896 61.0346 35.6113 61.3519 35.378C61.6786 35.1447 62.1313 35.028 62.7099 35.028C63.1673 35.028 63.5686 35.1213 63.9139 35.308C64.2593 35.4947 64.5299 35.7653 64.7259 36.12C64.9313 36.4653 65.0339 36.8807 65.0339 37.366V42H63.9279V37.464C63.9279 37.0067 63.7926 36.6473 63.5219 36.386C63.2606 36.1153 62.8919 35.98 62.4159 35.98C61.9119 35.98 61.4966 36.1433 61.1699 36.47C60.8526 36.7967 60.6939 37.268 60.6939 37.884V42H59.5879V37.464C59.5879 37.0067 59.4526 36.6473 59.1819 36.386C58.9206 36.1153 58.5519 35.98 58.0759 35.98C57.5719 35.98 57.1566 36.1433 56.8299 36.47C56.5126 36.7967 56.3539 37.268 56.3539 37.884V42H55.2479ZM69.3929 42.196C68.9169 42.196 68.4829 42.112 68.0909 41.944C67.6989 41.776 67.3909 41.5333 67.1669 41.216C66.9429 40.8987 66.8309 40.5113 66.8309 40.054C66.8309 39.5873 66.9429 39.2047 67.1669 38.906C67.3909 38.598 67.6989 38.3693 68.0909 38.22C68.4829 38.0613 68.9215 37.982 69.4069 37.982H71.7169V37.478C71.7169 36.9927 71.5722 36.61 71.2829 36.33C71.0029 36.05 70.5829 35.91 70.0229 35.91C69.4722 35.91 69.0429 36.0453 68.7349 36.316C68.4269 36.5773 68.2169 36.932 68.1049 37.38L67.0689 37.044C67.1809 36.6613 67.3582 36.316 67.6009 36.008C67.8435 35.6907 68.1655 35.4387 68.5669 35.252C68.9775 35.056 69.4675 34.958 70.0369 34.958C70.9142 34.958 71.5955 35.1867 72.0809 35.644C72.5662 36.092 72.8089 36.7267 72.8089 37.548V40.642C72.8089 40.922 72.9395 41.062 73.2009 41.062H73.8309V42H72.8649C72.5569 42 72.3095 41.916 72.1229 41.748C71.9362 41.5707 71.8429 41.3373 71.8429 41.048V40.978H71.6749C71.5722 41.1553 71.4322 41.342 71.2549 41.538C71.0869 41.7247 70.8535 41.8787 70.5549 42C70.2562 42.1307 69.8689 42.196 69.3929 42.196ZM69.5189 41.244C70.1722 41.244 70.6995 41.0527 71.1009 40.67C71.5115 40.278 71.7169 39.732 71.7169 39.032V38.878H69.4489C69.0102 38.878 68.6462 38.976 68.3569 39.172C68.0769 39.3587 67.9369 39.6433 67.9369 40.026C67.9369 40.4087 68.0815 40.7073 68.3709 40.922C68.6695 41.1367 69.0522 41.244 69.5189 41.244ZM74.8182 38.612V38.416C74.8182 37.6973 74.9629 37.0813 75.2522 36.568C75.5415 36.0547 75.9335 35.658 76.4282 35.378C76.9229 35.098 77.4642 34.958 78.0522 34.958C78.7709 34.958 79.3215 35.098 79.7042 35.378C80.0962 35.6487 80.3855 35.952 80.5722 36.288H80.7682V35.154H81.8182V43.596C81.8182 43.9693 81.7155 44.2633 81.5102 44.478C81.3049 44.6927 81.0062 44.8 80.6142 44.8H75.9662V43.82H80.3202C80.6002 43.82 80.7402 43.68 80.7402 43.4V40.796H80.5442C80.4322 41.0013 80.2735 41.202 80.0682 41.398C79.8629 41.594 79.5969 41.7573 79.2702 41.888C78.9435 42.0093 78.5375 42.07 78.0522 42.07C77.4642 42.07 76.9229 41.93 76.4282 41.65C75.9335 41.37 75.5415 40.9733 75.2522 40.46C74.9629 39.9373 74.8182 39.3213 74.8182 38.612ZM78.3462 41.09C79.0555 41.09 79.6295 40.866 80.0682 40.418C80.5162 39.97 80.7402 39.354 80.7402 38.57V38.458C80.7402 37.6647 80.5162 37.0487 80.0682 36.61C79.6295 36.162 79.0555 35.938 78.3462 35.938C77.6462 35.938 77.0675 36.162 76.6102 36.61C76.1622 37.0487 75.9382 37.6647 75.9382 38.458V38.57C75.9382 39.354 76.1622 39.97 76.6102 40.418C77.0675 40.866 77.6462 41.09 78.3462 41.09ZM87.2726 42.196C86.5819 42.196 85.9753 42.0513 85.4526 41.762C84.9299 41.4633 84.5239 41.048 84.2346 40.516C83.9453 39.984 83.8006 39.368 83.8006 38.668V38.5C83.8006 37.7907 83.9453 37.17 84.2346 36.638C84.5239 36.106 84.9253 35.6953 85.4386 35.406C85.9519 35.1073 86.5399 34.958 87.2026 34.958C87.8466 34.958 88.4159 35.098 88.9106 35.378C89.4053 35.6487 89.7926 36.0407 90.0726 36.554C90.3526 37.0673 90.4926 37.6693 90.4926 38.36V38.864H84.9066C84.9346 39.6013 85.1726 40.18 85.6206 40.6C86.0686 41.0107 86.6286 41.216 87.3006 41.216C87.8886 41.216 88.3413 41.0807 88.6586 40.81C88.9759 40.5393 89.2186 40.2173 89.3866 39.844L90.3386 40.306C90.1986 40.5953 90.0026 40.8847 89.7506 41.174C89.5079 41.4633 89.1859 41.706 88.7846 41.902C88.3926 42.098 87.8886 42.196 87.2726 42.196ZM84.9206 37.954H89.3726C89.3353 37.3193 89.1159 36.8247 88.7146 36.47C88.3226 36.1153 87.8186 35.938 87.2026 35.938C86.5773 35.938 86.0639 36.1153 85.6626 36.47C85.2613 36.8247 85.0139 37.3193 84.9206 37.954Z" fill="#818181"/>
<path d="M34.9231 6.46154C34.4154 6.46154 34 6.04615 34 5.53846V0.923077C34 0.415385 34.4154 0 34.9231 0H39.5385C40.0462 0 40.4615 0.415385 40.4615 0.923077C40.4615 1.43077 40.0462 1.84615 39.5385 1.84615H35.8462V5.53846C35.8462 6.04615 35.4308 6.46154 34.9231 6.46154Z" fill="#818181"/>
<path d="M57.0697 6.46154C56.562 6.46154 56.1466 6.04615 56.1466 5.53846V1.84615H52.4543C51.9466 1.84615 51.5312 1.43077 51.5312 0.923077C51.5312 0.415385 51.9466 0 52.4543 0H57.0697C57.5774 0 57.9928 0.415385 57.9928 0.923077V5.53846C57.9928 6.04615 57.5774 6.46154 57.0697 6.46154Z" fill="#818181"/>
<path d="M53.3954 8.30679C52.8877 8.30679 52.4724 7.89141 52.4724 7.38371V5.53756H50.6262C50.1185 5.53756 49.7031 5.12218 49.7031 4.61448C49.7031 4.10679 50.1185 3.69141 50.6262 3.69141H53.3954C53.9031 3.69141 54.3185 4.10679 54.3185 4.61448V7.38371C54.3185 7.89141 53.9031 8.30679 53.3954 8.30679Z" fill="#818181"/>
<path d="M53.3954 20.3068H50.6262C50.1185 20.3068 49.7031 19.8914 49.7031 19.3837C49.7031 18.876 50.1185 18.4606 50.6262 18.4606H52.4724V16.6145C52.4724 16.1068 52.8877 15.6914 53.3954 15.6914C53.9031 15.6914 54.3185 16.1068 54.3185 16.6145V19.3837C54.3185 19.8914 53.9031 20.3068 53.3954 20.3068Z" fill="#818181"/>
<path d="M38.6262 8.30679C38.1185 8.30679 37.7031 7.89141 37.7031 7.38371V4.61448C37.7031 4.10679 38.1185 3.69141 38.6262 3.69141H41.3954C41.9031 3.69141 42.3185 4.10679 42.3185 4.61448C42.3185 5.12218 41.9031 5.53756 41.3954 5.53756H39.5493V7.38371C39.5493 7.89141 39.1339 8.30679 38.6262 8.30679Z" fill="#818181"/>
<path d="M41.3954 20.3068H38.6262C38.1185 20.3068 37.7031 19.8914 37.7031 19.3837V16.6145C37.7031 16.1068 38.1185 15.6914 38.6262 15.6914C39.1339 15.6914 39.5493 16.1068 39.5493 16.6145V18.4606H41.3954C41.9031 18.4606 42.3185 18.876 42.3185 19.3837C42.3185 19.8914 41.9031 20.3068 41.3954 20.3068Z" fill="#818181"/>
<path d="M39.5385 23.9986H34.9231C34.4154 23.9986 34 23.5833 34 23.0756V18.4602C34 17.9525 34.4154 17.5371 34.9231 17.5371C35.4308 17.5371 35.8462 17.9525 35.8462 18.4602V22.1525H39.5385C40.0462 22.1525 40.4615 22.5679 40.4615 23.0756C40.4615 23.5833 40.0462 23.9986 39.5385 23.9986Z" fill="#818181"/>
<path d="M57.0697 23.9986H52.4543C51.9466 23.9986 51.5312 23.5833 51.5312 23.0756C51.5312 22.5679 51.9466 22.1525 52.4543 22.1525H56.1466V18.4602C56.1466 17.9525 56.562 17.5371 57.0697 17.5371C57.5774 17.5371 57.9928 17.9525 57.9928 18.4602V23.0756C57.9928 23.5833 57.5774 23.9986 57.0697 23.9986Z" fill="#818181"/>
<path d="M47.2769 6.66797H44.7023V10.714H40.6562V13.2886H44.7023V17.3346H47.2769V13.2886H51.3229V10.714H47.2769V6.66797Z" fill="#857E7B"/>
</svg>
