<svg xmlns="http://www.w3.org/2000/svg" width="29" height="104" viewBox="0 0 29 104" fill="none">
  <path d="M14.9267 90.4773L14.9268 1" stroke="white" stroke-width="2" stroke-linecap="round"/>
  <path d="M15.0426 98.3152C14.7419 97.548 14.4028 96.6643 14.1572 96.0244C13.9821 95.5681 13.8546 95.2359 13.8226 95.1585C11.7424 90.1205 8.99218 85.6752 5.49711 81.4779C5.21386 81.1369 4.70596 81.091 4.36494 81.3743C4.02392 81.6575 3.97803 82.1654 4.26129 82.5064C7.6518 86.5754 10.3202 90.8859 12.3375 95.7731C12.3693 95.8501 12.4956 96.1786 12.6697 96.6314C13.1395 97.8533 13.9573 99.9804 14.2066 100.514C14.3453 100.815 14.5172 100.942 14.5607 100.968C14.7859 101.116 14.9929 101.118 15.1517 101.089C15.3306 101.054 15.6121 100.925 15.827 100.587C15.9925 100.325 16.1899 99.7937 16.317 99.4516C16.3614 99.332 16.3972 99.2355 16.4201 99.1818C16.7981 98.3004 17.1669 97.3808 17.542 96.4452C18.497 94.0638 19.4936 91.5785 20.791 89.3541C22.5141 86.3994 24.7706 83.902 28.2533 82.8373C28.6774 82.7081 28.9159 82.2573 28.7866 81.8332C28.6574 81.4091 28.2066 81.1706 27.7825 81.2998C23.8891 82.491 21.3286 85.2417 19.4029 88.5435C18.0732 90.8238 17.0493 93.3698 16.0691 95.8069C15.7253 96.6618 15.3869 97.5033 15.0426 98.3152Z" fill="white"/>
  <path d="M15.0426 98.3152C14.7419 97.548 14.4028 96.6643 14.1572 96.0244C13.9821 95.5681 13.8546 95.2359 13.8226 95.1585C11.7424 90.1205 8.99218 85.6752 5.49711 81.4779C5.21386 81.1369 4.70596 81.091 4.36494 81.3743C4.02392 81.6575 3.97803 82.1654 4.26129 82.5064C7.6518 86.5754 10.3202 90.8859 12.3375 95.7731C12.3693 95.8501 12.4956 96.1786 12.6697 96.6314C13.1395 97.8533 13.9573 99.9804 14.2066 100.514C14.3453 100.815 14.5172 100.942 14.5607 100.968C14.7859 101.116 14.9929 101.118 15.1517 101.089C15.3306 101.054 15.6121 100.925 15.827 100.587C15.9925 100.325 16.1899 99.7937 16.317 99.4516C16.3614 99.332 16.3972 99.2355 16.4201 99.1818C16.7981 98.3004 17.1669 97.3808 17.542 96.4452C18.497 94.0638 19.4936 91.5785 20.791 89.3541C22.5141 86.3994 24.7706 83.902 28.2533 82.8373C28.6774 82.7081 28.9159 82.2573 28.7866 81.8332C28.6574 81.4091 28.2066 81.1706 27.7825 81.2998C23.8891 82.491 21.3286 85.2417 19.4029 88.5435C18.0732 90.8238 17.0493 93.3698 16.0691 95.8069C15.7253 96.6618 15.3869 97.5033 15.0426 98.3152Z" stroke="white"/>
</svg>