<svg width="59" height="15" viewBox="0 0 59 15" fill="none" xmlns="http://www.w3.org/2000/svg">
<path d="M0.564 12V11.1H1.74V4.5H0.564V3.6H3.84C4.944 3.6 5.796 3.88 6.396 4.44C7.004 5 7.308 5.86 7.308 7.02V8.58C7.308 9.748 7.004 10.612 6.396 11.172C5.796 11.724 4.944 12 3.84 12H0.564ZM2.748 11.088H3.84C4.656 11.088 5.272 10.888 5.688 10.488C6.104 10.088 6.312 9.468 6.312 8.628V6.984C6.312 6.128 6.104 5.504 5.688 5.112C5.272 4.72 4.656 4.524 3.84 4.524H2.748V11.088ZM8.91703 12V3.6H14.089V4.512H9.92503V7.32H13.753V8.232H9.92503V11.088H14.149V12H8.91703ZM15.6788 12V3.6H16.6868V11.088H20.9348V12H15.6788ZM22.2295 12V3.6H27.4015V4.512H23.2375V7.32H27.0655V8.232H23.2375V11.088H27.4615V12H22.2295ZM31.0553 12V4.512H28.3553V3.6H34.7633V4.512H32.0633V12H31.0553ZM36.0459 12V3.6H41.2179V4.512H37.0539V7.32H40.8819V8.232H37.0539V11.088H41.2779V12H36.0459Z" fill="#E33B3B"/>
<path d="M55.9528 1.50206H52.9441C52.8223 1.49053 52.701 1.52771 52.6066 1.60558C52.5123 1.68345 52.4527 1.79562 52.4411 1.91737V2.76643H50.4615C50.2965 2.76643 50.1442 2.85439 50.0618 2.99716C49.9794 3.13992 49.9794 3.31586 50.0618 3.45862C50.1442 3.60138 50.2965 3.68935 50.4615 3.68935H58.4355C58.6004 3.68935 58.7527 3.60138 58.8351 3.45862C58.9175 3.31585 58.9175 3.13992 58.8351 2.99716C58.7527 2.85439 58.6004 2.76643 58.4355 2.76643H56.4558V1.91737C56.4442 1.79562 56.3847 1.68345 56.2903 1.60558C56.196 1.52772 56.0746 1.49053 55.9529 1.50206H55.9528Z" fill="#E33B3B"/>
<path d="M58.6012 12.1155V5.06888C58.6012 4.94651 58.5526 4.82919 58.466 4.74267C58.3795 4.65604 58.2621 4.60742 58.1397 4.60742H50.7564C50.634 4.60742 50.5166 4.65604 50.4301 4.74267C50.3435 4.82919 50.2949 4.94651 50.2949 5.06888V12.1155C50.2949 12.4827 50.4408 12.8348 50.7003 13.0944C50.96 13.354 51.3121 13.4999 51.6793 13.4999H57.2168C57.584 13.4999 57.9361 13.354 58.1958 13.0944C58.4553 12.8348 58.6012 12.4827 58.6012 12.1155ZM56.0401 9.9835C56.126 10.07 56.1743 10.1869 56.1743 10.3089C56.1743 10.4307 56.126 10.5478 56.0401 10.6342C55.9542 10.7195 55.8381 10.7675 55.7171 10.768C55.5944 10.7687 55.4766 10.7206 55.3894 10.6342L54.4665 9.71126L53.5436 10.6342C53.4565 10.7206 53.3386 10.7687 53.2159 10.768C53.0949 10.7675 52.9789 10.7195 52.8929 10.6342C52.807 10.5478 52.7588 10.4307 52.7588 10.3089C52.7588 10.1869 52.807 10.07 52.8929 9.9835L53.8158 9.06058L52.8929 8.13766C52.807 8.05124 52.7588 7.93433 52.7588 7.81237C52.7588 7.69041 52.807 7.5735 52.8929 7.48708C52.9794 7.40107 53.0963 7.35287 53.2183 7.35287C53.3401 7.35287 53.4571 7.40107 53.5436 7.48708L54.4665 8.41L55.3894 7.48708C55.4759 7.40107 55.5928 7.35287 55.7148 7.35287C55.8367 7.35287 55.9537 7.40107 56.0401 7.48708C56.126 7.5735 56.1743 7.69041 56.1743 7.81237C56.1743 7.93433 56.126 8.05124 56.0401 8.13766L55.1172 9.06058L56.0401 9.9835Z" fill="#E33B3B"/>
</svg>
