<svg xmlns="http://www.w3.org/2000/svg" width="24" height="24" viewBox="0 0 24 24" fill="none">
    <circle cx="12" cy="12" r="12" fill="#374B55"/>
    <path fill-rule="evenodd" clip-rule="evenodd" d="M5.79846 8.40039H17.9553L11.8692 12.2399L5.79846 8.40039ZM18.1673 8.53478V15.6761H5.58643V14.994C6.7165 14.994 7.63273 14.0778 7.63273 12.9477C7.63273 11.8177 6.7165 10.9014 5.58643 10.9014V8.53437L11.809 12.4699L11.8088 12.4701C11.8498 12.496 11.901 12.4925 11.9377 12.4651L18.1675 8.53448L18.1673 8.53478Z" fill="#D4D4D4"/>
    <path fill-rule="evenodd" clip-rule="evenodd" d="M5.58653 11.1289C6.59114 11.1289 7.40548 11.9432 7.40548 12.9479C7.40548 13.9525 6.59114 14.7668 5.58653 14.7668C4.58191 14.7668 3.76758 13.9525 3.76758 12.9479C3.76758 11.9432 4.58191 11.1289 5.58653 11.1289ZM6.4133 13.5104H6.64757C6.57435 13.6596 6.46175 13.776 6.31004 13.8604C6.13613 13.9574 5.9239 14.0058 5.67396 14.0058C5.43211 14.0058 5.223 13.9649 5.04678 13.883C4.87098 13.8012 4.73997 13.6806 4.65403 13.521C4.56836 13.3615 4.52559 13.188 4.52559 13.0001C4.52559 12.794 4.57445 12.6021 4.67162 12.4241C4.7692 12.2465 4.90292 12.1128 5.07235 12.0238C5.24165 11.9347 5.43544 11.8901 5.65337 11.8901C5.83811 11.8901 6.00226 11.9261 6.14615 11.9978C6.29004 12.0695 6.39964 12.1717 6.47583 12.3042C6.55176 12.4364 6.58965 12.5814 6.58965 12.7384C6.58965 12.9254 6.53186 13.0943 6.41696 13.2453C6.27242 13.4362 6.08728 13.5314 5.86113 13.5314C5.80022 13.5314 5.75448 13.5209 5.72362 13.4995C5.69276 13.4781 5.67219 13.447 5.66204 13.406C5.5757 13.4898 5.47582 13.5314 5.36281 13.5314C5.24114 13.5314 5.14018 13.4894 5.05979 13.4056C4.9794 13.3215 4.9392 13.2099 4.9392 13.0702C4.9392 12.8978 4.98765 12.7409 5.08455 12.5986C5.20216 12.4255 5.35225 12.3387 5.53551 12.3387C5.66625 12.3387 5.76275 12.3887 5.825 12.4885L5.85248 12.366H6.14278L5.97685 13.1551C5.9667 13.205 5.96142 13.2373 5.96142 13.252C5.96142 13.2704 5.96562 13.2839 5.97414 13.2932C5.9824 13.3023 5.99255 13.3068 6.00419 13.3068C6.03951 13.3068 6.08499 13.2858 6.14088 13.2429C6.21559 13.1873 6.27608 13.1126 6.32224 13.0186C6.36839 12.9247 6.39139 12.8275 6.39139 12.7268C6.39139 12.5466 6.32643 12.3957 6.1957 12.2743C6.06496 12.153 5.88293 12.0921 5.64894 12.0921C5.45026 12.0921 5.28161 12.1327 5.14344 12.2138C5.00526 12.2949 4.90078 12.4087 4.83095 12.5559C4.76071 12.7028 4.72579 12.856 4.72579 13.0151C4.72579 13.1698 4.7649 13.3107 4.84299 13.4376C4.92108 13.5646 5.03071 13.6569 5.172 13.7155C5.31316 13.7737 5.47475 13.8031 5.6565 13.8031C5.8319 13.8031 5.9828 13.7787 6.10905 13.7298C6.23492 13.681 6.33656 13.6078 6.41356 13.5102L6.4133 13.5104ZM5.22395 13.0583C5.22395 13.1514 5.24276 13.2201 5.28066 13.2641C5.31855 13.3081 5.36511 13.3302 5.42073 13.3302C5.46282 13.3302 5.5018 13.32 5.53861 13.2994C5.56636 13.2848 5.59383 13.2615 5.62117 13.23C5.65987 13.1854 5.69371 13.12 5.72186 13.0343C5.75001 12.9484 5.76435 12.8684 5.76435 12.7944C5.76435 12.7114 5.74487 12.6479 5.70656 12.6035C5.66786 12.5593 5.61941 12.5371 5.56081 12.5371C5.49774 12.5371 5.43914 12.5614 5.38581 12.6099C5.33208 12.6588 5.29189 12.7282 5.26455 12.8187C5.23748 12.9089 5.22395 12.9888 5.22395 13.0583Z" fill="#D4D4D4"/>
</svg>