<svg xmlns="http://www.w3.org/2000/svg" width="40" height="40" viewBox="0 0 40 40" fill="none">
    <rect width="40" height="40" rx="6.66667" fill="url(#paint0_linear_1627_524)"/>
    <path d="M14.7573 10.8741C18.9115 7.72876 23.2074 8.3007 28.0907 10.3741L23.5907 17.5408C19.5376 16.2345 17.4396 17.1111 16.2573 19.8741C15.6428 21.3103 15.6759 22.4243 16.2573 23.8741C17.052 25.8558 18.7311 26.8894 20.5907 27.2075H23.0907L21.0907 21.8741L29.924 21.3741L27.2573 31.0408H24.0907V30.5408C20.8805 31.2988 19.3547 31.3405 17.2573 30.5408C13.4148 29.0529 11.3068 27.5004 10.2573 23.8741C9.67833 21.8734 10.2573 18.5408 10.2573 18.5408C10.8229 15.1099 11.9895 12.9698 14.7573 10.8741Z" fill="white"/>
    <defs>
        <linearGradient id="paint0_linear_1627_524" x1="40" y1="0" x2="0" y2="40" gradientUnits="userSpaceOnUse">
            <stop stop-color="#214E34"/>
            <stop offset="1" stop-color="#20A357"/>
        </linearGradient>
    </defs>
</svg>