<svg width="24" height="13" viewBox="0 0 24 13" fill="none" xmlns="http://www.w3.org/2000/svg">
<path d="M20.7692 -0.000244141H2.30766C1.48313 -0.000244141 0.721282 0.439668 0.309194 1.1536C-0.103065 1.86754 -0.103065 2.74736 0.309194 3.46129C0.721282 4.17523 1.48313 4.61514 2.30766 4.61514H20.7692C21.5937 4.61514 22.3556 4.17523 22.7677 3.46129C23.1799 2.74736 23.1799 1.86754 22.7677 1.1536C22.3556 0.439668 21.5937 -0.000244141 20.7692 -0.000244141Z" fill="url(#paint0_linear_1310_593)"/>
<path d="M11.5384 7.69202H2.30766C1.48313 7.69202 0.721282 8.13193 0.309195 8.84586C-0.103065 9.5598 -0.103065 10.4396 0.309195 11.1536C0.721282 11.8675 1.48313 12.3074 2.30766 12.3074H11.5384C12.363 12.3074 13.1248 11.8675 13.5369 11.1536C13.9491 10.4396 13.9491 9.5598 13.5369 8.84586C13.1248 8.13193 12.363 7.69202 11.5384 7.69202Z" fill="url(#paint1_linear_1310_593)"/>
<defs>
<linearGradient id="paint0_linear_1310_593" x1="11.5384" y1="-0.000244141" x2="11.5384" y2="4.61514" gradientUnits="userSpaceOnUse">
<stop stop-color="#FF8A56"/>
<stop offset="1" stop-color="#FFA84B"/>
</linearGradient>
<linearGradient id="paint1_linear_1310_593" x1="6.92304" y1="7.69202" x2="6.92304" y2="12.3074" gradientUnits="userSpaceOnUse">
<stop stop-color="#214E34"/>
<stop offset="1" stop-color="#FFA84B"/>
</linearGradient>
</defs>
</svg>
