<svg xmlns="http://www.w3.org/2000/svg" width="116" height="101" viewBox="0 0 116 101" fill="none">
    <path d="M65.3612 24.513C57.6289 19.7778 48.3322 18.3082 39.5164 20.4275C30.7006 22.5468 23.0877 28.0813 18.3525 35.8136C13.6174 43.5459 12.1478 52.8426 14.267 61.6584C16.3863 70.4742 21.9209 78.0871 29.6532 82.8223L47.5072 53.6676L65.3612 24.513Z" fill="#4C3072"/>
    <g opacity="0.6">
        <mask id="path-2-inside-1_1592_844" fill="white">
            <path d="M85.8734 18.5301C78.1411 13.7949 68.8444 12.3253 60.0286 14.4446C51.2128 16.5639 43.5999 22.0984 38.8647 29.8307C34.1296 37.563 32.66 46.8596 34.7793 55.6755C36.8985 64.4913 42.4331 72.1042 50.1654 76.8393L68.0194 47.6847L85.8734 18.5301Z"/>
        </mask>
        <path d="M85.8734 18.5301C78.1411 13.7949 68.8444 12.3253 60.0286 14.4446C51.2128 16.5639 43.5999 22.0984 38.8647 29.8307C34.1296 37.563 32.66 46.8596 34.7793 55.6755C36.8985 64.4913 42.4331 72.1042 50.1654 76.8393L68.0194 47.6847L85.8734 18.5301Z" stroke="#4C3072" stroke-width="2" mask="url(#path-2-inside-1_1592_844)"/>
    </g>
</svg>