<svg width="21" height="24" viewBox="0 0 21 24" fill="none" xmlns="http://www.w3.org/2000/svg">
<path d="M20.4848 3.0347L17.6776 0.227565C17.5511 0.101081 17.3742 0.0252258 17.1971 0.0252258L7.10656 0C6.92944 0.0252258 6.75251 0.075855 6.62601 0.202339C6.49953 0.328822 6.42367 0.505759 6.42367 0.682885V3.21184H3.89472C3.71761 3.21184 3.54068 3.28769 3.41418 3.41418C3.28769 3.54066 3.21184 3.7176 3.21184 3.89472V6.42367H0.682885C0.505773 6.42367 0.32884 6.49953 0.202339 6.62601C0.075855 6.7525 0 6.92943 0 7.10656V23.3171C0 23.6964 0.30342 24 0.682862 24H13.5805C13.9598 24 14.2634 23.6966 14.2634 23.3171V20.7882H16.7923C17.1716 20.7882 17.4752 20.4848 17.4752 20.1053V17.5764H20.0041C20.3834 17.5764 20.687 17.273 20.687 16.8935L20.6868 3.54065C20.6868 3.33848 20.6364 3.16137 20.4845 3.0349L20.4848 3.0347ZM19.1192 3.61632H17.0708V1.59329L19.1192 3.61632ZM12.8727 22.634H1.36597V7.81437H3.21206V20.1051C3.21206 20.4844 3.51548 20.7879 3.89492 20.7879H12.8727V22.634ZM16.1098 19.4222H4.57774V4.60256H6.42383V16.8933C6.42383 17.2725 6.72725 17.5761 7.10669 17.5761H16.0845V19.422L16.1098 19.4222ZM7.8148 16.2106V1.39093H15.7051V3.66689C15.7051 4.4002 16.3121 5.00724 17.0455 5.00724H19.3214V16.2105L7.8148 16.2106Z" fill="black"/>
<path d="M16.691 9.73648H10.4192C10.0399 9.73648 9.73633 10.0399 9.73633 10.4193C9.73633 10.7986 10.0397 11.1022 10.4192 11.1022H16.691C17.0703 11.1022 17.3739 10.7988 17.3739 10.4193C17.3991 10.0399 17.0704 9.73648 16.691 9.73648Z" fill="black"/>
<path d="M16.691 6.49939H10.4192C10.0399 6.49939 9.73633 6.80281 9.73633 7.18225C9.73633 7.56152 10.0397 7.86511 10.4192 7.86511H16.691C17.0703 7.86511 17.3739 7.56169 17.3739 7.18225C17.3991 6.80281 17.0704 6.49939 16.691 6.49939Z" fill="black"/>
<path d="M10.4192 4.62799H13.631C14.0103 4.62799 14.3139 4.32457 14.3139 3.94513C14.3139 3.56586 14.0104 3.26227 13.631 3.26227H10.4192C10.0399 3.26227 9.73633 3.56569 9.73633 3.94513C9.73633 4.32457 10.0399 4.62799 10.4192 4.62799Z" fill="black"/>
<path d="M16.691 12.9735H10.4192C10.0399 12.9735 9.73633 13.277 9.73633 13.6564C9.73633 14.0357 10.0397 14.3393 10.4192 14.3393H16.691C17.0703 14.3393 17.3739 14.0358 17.3739 13.6564C17.3991 13.277 17.0704 12.9735 16.691 12.9735Z" fill="black"/>
</svg>
