<svg xmlns="http://www.w3.org/2000/svg" width="24" height="24" viewBox="0 0 24 24" fill="none">
    <circle cx="12" cy="12" r="12" fill="#7997A6"/>
    <path d="M16.9227 11.6836H18.1859C18.1859 8.44358 15.7398 6 12.4954 6V7.26316C15.0608 7.26316 16.9227 9.1219 16.9227 11.6836Z" fill="#212E37"/>
    <path d="M12.502 9.78988C13.8302 9.78988 14.3967 10.3564 14.3967 11.6846H15.6599C15.6599 9.64778 14.5388 8.52672 12.502 8.52672V9.78988ZM14.6633 13.2276C14.5419 13.1173 14.3824 13.0584 14.2185 13.0635C14.0546 13.0686 13.8991 13.1371 13.7847 13.2547L12.2734 14.809C11.9096 14.7396 11.1782 14.5116 10.4254 13.7606C9.67253 13.0071 9.44453 12.2739 9.37695 11.9126L10.93 10.4006C11.0477 10.2864 11.1164 10.1308 11.1215 9.96686C11.1265 9.80289 11.0676 9.64338 10.9572 9.52209L8.62348 6.95599C8.51298 6.83432 8.3594 6.76052 8.19536 6.75026C8.03133 6.74 7.86975 6.79409 7.74495 6.90104L6.37442 8.07641C6.26523 8.186 6.20006 8.33185 6.19127 8.4863C6.18179 8.6442 6.00116 12.3844 8.90137 15.2859C11.4315 17.8154 14.6007 18.0004 15.4736 18.0004C15.6012 18.0004 15.6795 17.9966 15.7003 17.9954C15.8548 17.9867 16.0005 17.9212 16.1096 17.8116L17.2843 16.4404C17.3914 16.3157 17.4456 16.1542 17.4354 15.9901C17.4253 15.8261 17.3516 15.6725 17.23 15.5619L14.6633 13.2276Z" fill="#212E37"/>
</svg>