<svg width="141" height="24" viewBox="0 0 141 24" fill="none" xmlns="http://www.w3.org/2000/svg">
<path d="M44.98 19.26C43.78 19.26 42.6933 19.12 41.72 18.84C40.76 18.56 39.9267 18.14 39.22 17.58C38.5267 17.02 37.9933 16.3267 37.62 15.5C37.2467 14.6733 37.06 13.72 37.06 12.64C37.06 11.5467 37.2533 10.58 37.64 9.74C38.04 8.88667 38.6 8.16667 39.32 7.58C40.0533 6.99333 40.92 6.55333 41.92 6.26C42.9333 5.95333 44.0533 5.8 45.28 5.8C46.7333 5.8 47.9867 6.00667 49.04 6.42C50.0933 6.82 50.92 7.38667 51.52 8.12C52.1333 8.85333 52.48 9.72667 52.56 10.74H50C49.8267 10.2067 49.54 9.74667 49.14 9.36C48.7533 8.96 48.24 8.65333 47.6 8.44C46.96 8.21333 46.1867 8.1 45.28 8.1C44.12 8.1 43.1267 8.28667 42.3 8.66C41.4867 9.03333 40.8667 9.56 40.44 10.24C40.0133 10.92 39.8 11.72 39.8 12.64C39.8 13.5333 39.9867 14.3067 40.36 14.96C40.7333 15.6 41.3067 16.0933 42.08 16.44C42.8667 16.7867 43.8667 16.96 45.08 16.96C46.0133 16.96 46.8333 16.84 47.54 16.6C48.26 16.3467 48.86 16.0133 49.34 15.6C49.82 15.1733 50.16 14.7 50.36 14.18L51.4 13.8C51.2267 15.52 50.5733 16.86 49.44 17.82C48.32 18.78 46.8333 19.26 44.98 19.26ZM50.72 19C50.72 18.5867 50.7467 18.1133 50.8 17.58C50.8533 17.0333 50.92 16.4867 51 15.94C51.08 15.38 51.1533 14.8667 51.22 14.4H45.3V12.7H53.02V19H50.72ZM58.4813 13.6V16.78H68.4613V19H55.8213V6.06H68.4413V8.28H58.4813V11.5H66.6413V13.6H58.4813ZM84.0723 6.06L78.3923 14.92V19H75.7123V14.92L70.0323 6.06H73.1123L77.8923 13.8H76.2923L80.9923 6.06H84.0723ZM99.117 16.36L98.277 16.7V6.06H100.937V19H98.277L87.817 8.78L88.657 8.44V19H85.997V6.06H88.657L99.117 16.36ZM104.404 6.06H107.064V19H104.404V6.06ZM122.389 13.28V6.06H125.049V13.56C125.049 14.4133 124.922 15.16 124.669 15.8C124.429 16.44 124.082 16.98 123.629 17.42C123.175 17.86 122.642 18.22 122.029 18.5C121.429 18.7667 120.769 18.96 120.049 19.08C119.342 19.2 118.595 19.26 117.809 19.26C116.995 19.26 116.222 19.2 115.489 19.08C114.755 18.96 114.082 18.7667 113.469 18.5C112.869 18.22 112.349 17.86 111.909 17.42C111.469 16.98 111.122 16.44 110.869 15.8C110.629 15.16 110.509 14.4133 110.509 13.56V6.06H113.169V13.28C113.169 14.2933 113.369 15.0667 113.769 15.6C114.169 16.12 114.715 16.48 115.409 16.68C116.115 16.8667 116.915 16.96 117.809 16.96C118.675 16.96 119.449 16.8667 120.129 16.68C120.822 16.48 121.369 16.12 121.769 15.6C122.182 15.0667 122.389 14.2933 122.389 13.28ZM127.266 14.64H129.966C130.019 15.0933 130.226 15.5067 130.586 15.88C130.959 16.24 131.446 16.5267 132.046 16.74C132.646 16.94 133.319 17.04 134.066 17.04C134.746 17.04 135.306 16.9667 135.746 16.82C136.186 16.6733 136.513 16.4667 136.726 16.2C136.939 15.9333 137.046 15.6133 137.046 15.24C137.046 14.88 136.913 14.6067 136.646 14.42C136.379 14.22 135.959 14.06 135.386 13.94C134.813 13.8067 134.059 13.6733 133.126 13.54C132.393 13.4333 131.699 13.2867 131.046 13.1C130.393 12.9 129.813 12.6467 129.306 12.34C128.813 12.0333 128.419 11.66 128.126 11.22C127.846 10.7667 127.706 10.2333 127.706 9.62C127.706 8.86 127.919 8.19333 128.346 7.62C128.786 7.04667 129.433 6.6 130.286 6.28C131.139 5.96 132.186 5.8 133.426 5.8C135.293 5.8 136.726 6.2 137.726 7C138.739 7.78667 139.233 8.87333 139.206 10.26H136.606C136.553 9.47333 136.219 8.90667 135.606 8.56C135.006 8.21333 134.246 8.04 133.326 8.04C132.473 8.04 131.766 8.16667 131.206 8.42C130.659 8.67333 130.386 9.10667 130.386 9.72C130.386 9.96 130.453 10.1733 130.586 10.36C130.719 10.5333 130.946 10.6867 131.266 10.82C131.586 10.9533 132.019 11.08 132.566 11.2C133.113 11.32 133.793 11.44 134.606 11.56C135.366 11.6667 136.053 11.8133 136.666 12C137.293 12.1733 137.826 12.4067 138.266 12.7C138.719 12.98 139.066 13.34 139.306 13.78C139.546 14.22 139.666 14.76 139.666 15.4C139.666 16.1867 139.459 16.8733 139.046 17.46C138.646 18.0333 138.019 18.48 137.166 18.8C136.326 19.12 135.233 19.28 133.886 19.28C132.926 19.28 132.079 19.18 131.346 18.98C130.613 18.7667 129.979 18.4867 129.446 18.14C128.913 17.7933 128.479 17.4133 128.146 17C127.813 16.5867 127.573 16.1733 127.426 15.76C127.293 15.3467 127.239 14.9733 127.266 14.64Z" fill="url(#paint0_linear_1310_590)"/>
<rect width="24" height="24" rx="8" fill="url(#paint1_linear_1310_590)"/>
<path d="M8.8544 6.5243C11.3469 4.63707 13.9245 4.98024 16.8544 6.2243L14.1544 10.5243C11.7226 9.74049 10.4637 10.2665 9.7544 11.9243C9.38571 12.786 9.40554 13.4544 9.7544 14.3243C10.2312 15.5133 11.2386 16.1335 12.3544 16.3243H13.8544L12.6544 13.1243L17.9544 12.8243L16.3544 18.6243H14.4544V18.3243C12.5283 18.7791 11.6128 18.8041 10.3544 18.3243C8.04886 17.4315 6.78408 16.5001 6.1544 14.3243C5.807 13.1239 6.1544 11.1243 6.1544 11.1243C6.49371 9.06574 7.19372 7.78169 8.8544 6.5243Z" fill="white"/>
<defs>
<linearGradient id="paint0_linear_1310_590" x1="88.5" y1="0" x2="88.5" y2="24" gradientUnits="userSpaceOnUse">
<stop stop-color="#214E34"/>
<stop offset="1" stop-color="#20A357"/>
</linearGradient>
<linearGradient id="paint1_linear_1310_590" x1="24" y1="0" x2="0" y2="24" gradientUnits="userSpaceOnUse">
<stop stop-color="#214E34"/>
<stop offset="1" stop-color="#20A357"/>
</linearGradient>
</defs>
</svg>
