<svg width="240" height="48" viewBox="0 0 240 48" fill="none" xmlns="http://www.w3.org/2000/svg">
<path d="M86.368 34.416C84.448 34.416 82.7093 34.192 81.152 33.744C79.616 33.296 78.2827 32.624 77.152 31.728C76.0427 30.832 75.1893 29.7227 74.592 28.4C73.9947 27.0773 73.696 25.552 73.696 23.824C73.696 22.0747 74.0053 20.528 74.624 19.184C75.264 17.8187 76.16 16.6667 77.312 15.728C78.4853 14.7893 79.872 14.0853 81.472 13.616C83.0933 13.1253 84.8853 12.88 86.848 12.88C89.1733 12.88 91.1787 13.2107 92.864 13.872C94.5493 14.512 95.872 15.4187 96.832 16.592C97.8133 17.7653 98.368 19.1627 98.496 20.784H94.4C94.1227 19.9307 93.664 19.1947 93.024 18.576C92.4053 17.936 91.584 17.4453 90.56 17.104C89.536 16.7413 88.2987 16.56 86.848 16.56C84.992 16.56 83.4027 16.8587 82.08 17.456C80.7787 18.0533 79.7867 18.896 79.104 19.984C78.4213 21.072 78.08 22.352 78.08 23.824C78.08 25.2533 78.3787 26.4907 78.976 27.536C79.5733 28.56 80.4907 29.3493 81.728 29.904C82.9867 30.4587 84.5867 30.736 86.528 30.736C88.0213 30.736 89.3333 30.544 90.464 30.16C91.616 29.7547 92.576 29.2213 93.344 28.56C94.112 27.8773 94.656 27.12 94.976 26.288L96.64 25.68C96.3627 28.432 95.3173 30.576 93.504 32.112C91.712 33.648 89.3333 34.416 86.368 34.416ZM95.552 34C95.552 33.3387 95.5947 32.5813 95.68 31.728C95.7653 30.8533 95.872 29.9787 96 29.104C96.128 28.208 96.2453 27.3867 96.352 26.64H86.88V23.92H99.232V34H95.552ZM107.97 25.36V30.448H123.938V34H103.714V13.296H123.906V16.848H107.97V22H121.026V25.36H107.97ZM148.916 13.296L139.828 27.472V34H135.54V27.472L126.452 13.296H131.38L139.028 25.68H136.468L143.988 13.296H148.916ZM172.987 29.776L171.643 30.32V13.296H175.899V34H171.643L154.907 17.648L156.251 17.104V34H151.995V13.296H156.251L172.987 29.776ZM181.447 13.296H185.703V34H181.447V13.296ZM210.222 24.848V13.296H214.478V25.296C214.478 26.6613 214.275 27.856 213.87 28.88C213.486 29.904 212.931 30.768 212.206 31.472C211.481 32.176 210.627 32.752 209.646 33.2C208.686 33.6267 207.63 33.936 206.478 34.128C205.347 34.32 204.153 34.416 202.894 34.416C201.593 34.416 200.355 34.32 199.182 34.128C198.009 33.936 196.931 33.6267 195.95 33.2C194.99 32.752 194.158 32.176 193.454 31.472C192.75 30.768 192.195 29.904 191.79 28.88C191.406 27.856 191.214 26.6613 191.214 25.296V13.296H195.47V24.848C195.47 26.4693 195.79 27.7067 196.43 28.56C197.07 29.392 197.945 29.968 199.054 30.288C200.185 30.5867 201.465 30.736 202.894 30.736C204.281 30.736 205.518 30.5867 206.606 30.288C207.715 29.968 208.59 29.392 209.23 28.56C209.891 27.7067 210.222 26.4693 210.222 24.848ZM218.026 27.024H222.346C222.431 27.7493 222.762 28.4107 223.338 29.008C223.935 29.584 224.714 30.0427 225.674 30.384C226.634 30.704 227.711 30.864 228.906 30.864C229.994 30.864 230.89 30.7467 231.594 30.512C232.298 30.2773 232.82 29.9467 233.162 29.52C233.503 29.0933 233.674 28.5813 233.674 27.984C233.674 27.408 233.46 26.9707 233.034 26.672C232.607 26.352 231.935 26.096 231.018 25.904C230.1 25.6907 228.895 25.4773 227.402 25.264C226.228 25.0933 225.119 24.8587 224.074 24.56C223.028 24.24 222.1 23.8347 221.29 23.344C220.5 22.8533 219.871 22.256 219.402 21.552C218.954 20.8267 218.73 19.9733 218.73 18.992C218.73 17.776 219.071 16.7093 219.754 15.792C220.458 14.8747 221.492 14.16 222.858 13.648C224.223 13.136 225.898 12.88 227.882 12.88C230.868 12.88 233.162 13.52 234.762 14.8C236.383 16.0587 237.172 17.7973 237.13 20.016H232.97C232.884 18.7573 232.351 17.8507 231.37 17.296C230.41 16.7413 229.194 16.464 227.722 16.464C226.356 16.464 225.226 16.6667 224.33 17.072C223.455 17.4773 223.018 18.1707 223.018 19.152C223.018 19.536 223.124 19.8773 223.338 20.176C223.551 20.4533 223.914 20.6987 224.426 20.912C224.938 21.1253 225.631 21.328 226.506 21.52C227.38 21.712 228.468 21.904 229.77 22.096C230.986 22.2667 232.084 22.5013 233.066 22.8C234.068 23.0773 234.922 23.4507 235.626 23.92C236.351 24.368 236.906 24.944 237.29 25.648C237.674 26.352 237.866 27.216 237.866 28.24C237.866 29.4987 237.535 30.5973 236.874 31.536C236.234 32.4533 235.231 33.168 233.866 33.68C232.522 34.192 230.772 34.448 228.618 34.448C227.082 34.448 225.727 34.288 224.554 33.968C223.38 33.6267 222.367 33.1787 221.514 32.624C220.66 32.0693 219.967 31.4613 219.434 30.8C218.9 30.1387 218.516 29.4773 218.282 28.816C218.068 28.1547 217.983 27.5573 218.026 27.024Z" fill="url(#paint0_linear_1308_585)"/>
<rect width="48" height="48" rx="8" fill="url(#paint1_linear_1308_585)"/>
<path d="M17.7088 13.0486C22.6939 9.27412 27.8489 9.96045 33.7088 12.4486L28.3088 21.0486C23.4451 19.481 20.9275 20.533 19.5088 23.8486C18.7714 25.572 18.8111 26.9087 19.5088 28.6486C20.4624 31.0265 22.4773 32.2669 24.7088 32.6486H27.7088L25.3088 26.2486L35.9088 25.6486L32.7088 37.2486H28.9088V36.6486C25.0566 37.5582 23.2257 37.6082 20.7088 36.6486C16.0977 34.8631 13.5682 33.0001 12.3088 28.6486C11.614 26.2477 12.3088 22.2486 12.3088 22.2486C12.9874 18.1315 14.3874 15.5634 17.7088 13.0486Z" fill="white"/>
<defs>
<linearGradient id="paint0_linear_1308_585" x1="156" y1="5" x2="156" y2="43" gradientUnits="userSpaceOnUse">
<stop stop-color="#214E34"/>
<stop offset="1" stop-color="#20A357"/>
</linearGradient>
<linearGradient id="paint1_linear_1308_585" x1="48" y1="0" x2="0" y2="48" gradientUnits="userSpaceOnUse">
<stop stop-color="#214E34"/>
<stop offset="1" stop-color="#20A357"/>
</linearGradient>
</defs>
</svg>
