<svg width="48" height="48" viewBox="0 0 48 48" fill="none" xmlns="http://www.w3.org/2000/svg">
<rect width="48" height="48" rx="8" fill="url(#paint0_linear_446_2473)"/>
<path d="M17.7088 13.0486C22.6939 9.27412 27.8489 9.96045 33.7088 12.4486L28.3088 21.0486C23.4451 19.481 20.9275 20.533 19.5088 23.8486C18.7714 25.572 18.8111 26.9087 19.5088 28.6486C20.4624 31.0265 22.4773 32.2669 24.7088 32.6486H27.7088L25.3088 26.2486L35.9088 25.6486L32.7088 37.2486H28.9088V36.6486C25.0566 37.5582 23.2257 37.6082 20.7088 36.6486C16.0977 34.8631 13.5682 33.0001 12.3088 28.6486C11.614 26.2477 12.3088 22.2486 12.3088 22.2486C12.9874 18.1315 14.3874 15.5634 17.7088 13.0486Z" fill="white"/>
<defs>
<linearGradient id="paint0_linear_446_2473" x1="48" y1="0" x2="0" y2="48" gradientUnits="userSpaceOnUse">
<stop stop-color="#214E34"/>
<stop offset="1" stop-color="#20A357"/>
</linearGradient>
</defs>
</svg>
