<svg width="60" height="105" viewBox="0 0 60 105" fill="none" xmlns="http://www.w3.org/2000/svg">
<path d="M51.8495 16.3641C52.6702 16.3323 53.3786 16.1553 53.9745 15.8333C54.5705 15.5113 55.0233 15.0774 55.3331 14.5316C55.6428 13.9859 55.784 13.3613 55.7567 12.6578L54.3498 12.7124C54.3667 13.1494 54.2812 13.5584 54.0932 13.9393C53.9047 14.3095 53.623 14.614 53.248 14.8527C52.8619 15.0812 52.381 15.2066 51.8055 15.229C51.0487 15.2583 50.4554 15.0999 50.0257 14.7536C49.5959 14.4074 49.3705 13.9625 49.3494 13.4189C49.332 12.9712 49.4141 12.6104 49.5956 12.3365C49.7767 12.0519 50.0292 11.818 50.353 11.6346C50.6661 11.4517 51.0334 11.288 51.4548 11.1435C51.8655 10.9995 52.2969 10.8386 52.749 10.6609C53.6008 10.329 54.226 9.93645 54.6248 9.48331C55.0231 9.01951 55.2084 8.43055 55.1806 7.71642C55.1681 7.11912 55.0091 6.5969 54.7035 6.14974C54.3975 5.69193 53.9784 5.34526 53.4462 5.10972C52.903 4.86394 52.2689 4.75512 51.5442 4.78325C50.83 4.81096 50.217 4.96819 49.7051 5.25493C49.1825 5.54208 48.7864 5.92573 48.5168 6.40588C48.2366 6.88644 48.1027 7.42537 48.1152 8.02267L49.5221 7.96806C49.5102 7.65896 49.5783 7.35209 49.7266 7.04744C49.8745 6.73213 50.1099 6.47214 50.4329 6.26746C50.7452 6.0632 51.1465 5.95155 51.6368 5.93252C52.2439 5.89828 52.7509 6.03339 53.1577 6.33784C53.5538 6.64271 53.7628 7.07759 53.7847 7.6425C53.8033 8.12214 53.6844 8.49503 53.4278 8.76118C53.1606 9.02775 52.7852 9.25581 52.3015 9.44538C51.8174 9.62429 51.2598 9.83274 50.6285 10.0707C50.103 10.2833 49.6321 10.5257 49.2157 10.7981C48.7993 11.0704 48.4817 11.4137 48.2629 11.8278C48.0335 12.2423 47.931 12.764 47.9554 13.3929C47.976 13.9258 48.1343 14.4267 48.43 14.8956C48.7253 15.3539 49.1612 15.7212 49.7377 15.9977C50.3036 16.2747 51.0075 16.3968 51.8495 16.3641Z" fill="white"/>
<path d="M41.1739 18.5132C42.2152 18.163 43.0386 17.6329 43.6439 16.923C44.2356 16.2063 44.6011 15.3688 44.7402 14.4105C44.876 13.442 44.7602 12.4118 44.3931 11.3199C44.0293 10.2381 43.5024 9.35744 42.8125 8.6779C42.1192 7.98824 41.3203 7.53667 40.4157 7.32318C39.5011 7.11309 38.523 7.18314 37.4817 7.53332C36.2684 7.9413 35.3813 8.56598 34.8202 9.40737C34.2456 10.242 34.0272 11.2158 34.1651 12.3285L35.5755 11.8542C35.5163 11.1427 35.6731 10.5047 36.046 9.94045C36.4054 9.36945 37.0098 8.94115 37.8591 8.65557C38.6173 8.40058 39.3391 8.35482 40.0242 8.5183C40.706 8.67166 41.3141 9.02423 41.8485 9.57601C42.3694 10.1211 42.7828 10.8486 43.0888 11.7585C43.3948 12.6684 43.5066 13.503 43.4243 14.2621C43.3285 15.0146 43.057 15.663 42.6098 16.2072C42.1592 16.7414 41.5548 17.1359 40.7965 17.3909C39.9472 17.6765 39.2103 17.7105 38.5857 17.4929C37.9476 17.2686 37.4389 16.8601 37.0595 16.2674L35.6491 16.7417C36.2048 17.6914 36.9637 18.3253 37.9259 18.6432C38.878 18.9645 39.9606 18.9211 41.1739 18.5132Z" fill="white"/>
<path d="M34.7666 21.2605L28.3506 12.0804L25.3867 14.1518C24.6698 14.6529 24.1665 15.1803 23.8768 15.7341C23.5872 16.2879 23.4767 16.8467 23.5453 17.4104C23.6139 17.9741 23.8224 18.5051 24.1707 19.0034C24.574 19.5805 25.0949 19.9907 25.7335 20.2341C26.3634 20.4836 27.0734 20.4754 27.8635 20.2094L28.6159 25.5592L29.9142 24.6518L29.1276 19.5602L29.2063 19.5052L31.0161 18.2403L33.665 22.0304L34.7666 21.2605ZM30.4111 17.3748L28.6276 18.6213C27.9194 19.1163 27.2844 19.3063 26.7226 19.1914C26.1608 19.0765 25.6935 18.7524 25.3208 18.2191C24.9419 17.677 24.8043 17.1356 24.9078 16.5948C24.9964 16.0513 25.4036 15.526 26.1293 15.0188L27.8997 13.7814L30.4111 17.3748Z" fill="white"/>
<path d="M25.0222 31.1393C25.709 30.2817 26.125 29.3782 26.2704 28.4287C26.4008 27.4809 26.2713 26.5504 25.8819 25.6374C25.4858 24.7326 24.8423 23.9236 23.9514 23.2102C23.0605 22.4968 22.1345 22.049 21.1734 21.867C20.1973 21.6867 19.2611 21.7637 18.3647 22.0981C17.4616 22.4408 16.6667 23.041 15.98 23.8986C15.2866 24.7645 14.8747 25.6714 14.7444 26.6192C14.6073 27.5753 14.7368 28.5058 15.1329 29.4105C15.5206 30.3086 16.1599 31.1143 17.0508 31.8277C17.9417 32.5411 18.8719 32.9922 19.8413 33.1809C20.8108 33.3696 21.747 33.2925 22.6501 32.9498C23.5381 32.6087 24.3288 32.0052 25.0222 31.1393ZM24.098 30.3992C23.5847 31.0403 22.9931 31.489 22.3233 31.7452C21.6385 32.0031 20.923 32.0519 20.1768 31.8917C19.4155 31.7331 18.6602 31.3537 17.9109 30.7537C17.1615 30.1536 16.6304 29.5028 16.3176 28.8014C15.998 28.1082 15.8934 27.4027 16.0037 26.6848C16.099 25.9685 16.4033 25.2898 16.9167 24.6487C17.4301 24.0076 18.0292 23.5581 18.714 23.3002C19.3837 23.0439 20.0951 22.9918 20.848 23.1437C21.5942 23.304 22.342 23.6842 23.0914 24.2842C23.8407 24.8843 24.3793 25.5342 24.7072 26.234C25.02 26.9355 25.1288 27.6444 25.0335 28.3606C24.9232 29.0786 24.6114 29.7581 24.098 30.3992Z" fill="white"/>
<path d="M22.3713 36.8101L12.0106 32.5561L11.5001 33.7994L20.8691 37.6463L18.8879 42.4714L19.8796 42.8785L22.3713 36.8101Z" fill="white"/>
<path d="M19.4324 46.1451L8.77483 42.7019L8.36165 43.9808L17.9992 47.0945L16.3956 52.0579L17.4157 52.3874L19.4324 46.1451Z" fill="white"/>
<path d="M21.364 61.9272L11.3643 66.9715L12.9136 70.0428C13.8023 71.8047 14.9033 72.8741 16.2165 73.2511C17.5344 73.6376 18.9744 73.4369 20.5362 72.649C22.0695 71.8756 23.0724 70.844 23.5449 69.5543C24.0126 68.279 23.8021 66.7604 22.9134 64.9986L21.364 61.9272ZM20.9694 63.6316L21.899 65.4744C22.389 66.4458 22.621 67.2965 22.5949 68.0264C22.5642 68.7707 22.316 69.4156 21.8505 69.9611C21.3754 70.5113 20.7283 70.993 19.9093 71.4062C19.0712 71.8289 18.2897 72.0678 17.5649 72.1229C16.84 72.1779 16.1691 71.9966 15.5522 71.579C14.9402 71.171 14.3892 70.4812 13.8992 69.5098L12.9696 67.667L20.9694 63.6316Z" fill="white"/>
<path d="M29.6523 73.9729C28.9012 73.1711 28.066 72.6307 27.1469 72.3517C26.2273 72.0878 25.2879 72.0835 24.3287 72.339C23.3768 72.6023 22.4844 73.1241 21.6515 73.9044C20.8186 74.6847 20.2436 75.5375 19.9267 76.463C19.6092 77.4035 19.5522 78.3411 19.7557 79.276C19.9664 80.2186 20.4473 81.0908 21.1985 81.8926C21.9569 82.7022 22.7959 83.239 23.7155 83.5029C24.6424 83.7746 25.5818 83.7788 26.5337 83.5156C27.4778 83.2596 28.3664 82.7415 29.1993 81.9612C30.0322 81.1809 30.611 80.3244 30.9358 79.3916C31.2605 78.4589 31.3175 77.5212 31.1068 76.5786C30.8955 75.651 30.4107 74.7825 29.6523 73.9729ZM28.7882 74.7824C29.3498 75.3818 29.7097 76.0312 29.868 76.7306C30.0258 77.4451 29.9723 78.1603 29.7074 78.8761C29.4421 79.607 28.9591 80.3007 28.2585 80.957C27.558 81.6133 26.8382 82.0464 26.0994 82.2562C25.3678 82.4739 24.6546 82.477 23.9596 82.2657C23.2642 82.0694 22.6357 81.6716 22.0742 81.0722C21.5127 80.4728 21.153 79.8159 20.9952 79.1013C20.8369 78.4019 20.8865 77.6904 21.1441 76.9668C21.4089 76.251 21.8916 75.5649 22.5922 74.9085C23.2928 74.2522 24.0128 73.8116 24.7521 73.5867C25.491 73.3768 26.2081 73.37 26.9035 73.5663C27.5985 73.7776 28.2267 74.183 28.7882 74.7824Z" fill="white"/>
<path d="M35.93 79.3122L27.5899 87.4164L28.8305 88.1473L35.7933 81.0887L33.2832 90.7706L34.5653 91.526L41.7486 84.5972L38.9766 94.1249L40.2173 94.8559L43.2006 83.6142L41.8772 82.8345L34.8806 89.4462L37.2177 80.0894L35.93 79.3122Z" fill="white"/>
<path d="M46.5156 84.5954L43.7793 95.456L45.0826 95.7844L53.0626 88.5384L50.8697 97.2424L52.173 97.5707L54.9093 86.7101L53.606 86.3818L45.6259 93.6277L47.8188 84.9237L46.5156 84.5954Z" fill="white"/>
</svg>
