<svg width="64" height="107" viewBox="0 0 64 107" fill="none" xmlns="http://www.w3.org/2000/svg">
<path d="M10.9511 89.7342C10.1314 89.7846 9.42721 89.9776 8.83871 90.313C8.2502 90.6485 7.8073 91.0925 7.51002 91.6452C7.21273 92.1978 7.08571 92.8255 7.12895 93.5281L8.53429 93.4416C8.50743 93.0051 8.58368 92.5943 8.76303 92.2093C8.94304 91.8348 9.2178 91.524 9.58732 91.2769C9.96814 91.0397 10.446 90.9034 11.0209 90.8681C11.7768 90.8215 12.3735 90.9665 12.811 91.3029C13.2485 91.6394 13.4839 92.0791 13.5174 92.622C13.5449 93.0692 13.471 93.4317 13.2957 93.7097C13.1211 93.9983 12.8741 94.2379 12.5545 94.4286C12.2456 94.6186 11.8821 94.7906 11.4641 94.9445C11.0568 95.0978 10.6291 95.2684 10.1811 95.4563C9.33712 95.8075 8.72093 96.2141 8.33258 96.6761C7.94488 97.1488 7.77298 97.7419 7.81687 98.4552C7.84291 99.052 8.01375 99.5705 8.32938 100.011C8.64566 100.461 9.0725 100.798 9.60991 101.022C10.1586 101.255 10.7949 101.35 11.5189 101.305C12.2322 101.261 12.8415 101.09 13.3468 100.792C13.8628 100.493 14.2501 100.1 14.5087 99.6143C14.778 99.1276 14.8996 98.5857 14.8736 97.9889L13.4682 98.0753C13.4872 98.3841 13.426 98.6924 13.2847 99.0004C13.144 99.3189 12.9145 99.5842 12.5963 99.7962C12.2887 100.007 11.89 100.128 11.4002 100.158C10.794 100.206 10.2842 100.083 9.87058 99.7875C9.46765 99.4917 9.24883 99.0617 9.21411 98.4974C9.18462 98.0183 9.2951 97.6428 9.54554 97.371C9.80663 97.0984 10.1768 96.8619 10.6561 96.6614C11.136 96.4716 11.6888 96.2505 12.3145 95.9983C12.835 95.7739 13.3003 95.5208 13.7105 95.2391C14.1206 94.9574 14.4303 94.607 14.6397 94.1881C14.8596 93.7684 14.9503 93.2445 14.9116 92.6164C14.8789 92.0841 14.7094 91.5869 14.4031 91.1248C14.0974 90.6734 13.6533 90.316 13.0707 90.0526C12.4987 89.7886 11.7922 89.6824 10.9511 89.7342Z" fill="white"/>
<path d="M21.5754 87.3435C20.5423 87.7172 19.7312 88.2658 19.1421 88.9893C18.5668 89.7192 18.2204 90.5647 18.103 91.526C17.9892 92.4972 18.1283 93.5245 18.5201 94.6079C18.9083 95.6811 19.455 96.5496 20.1601 97.2134C20.8689 97.8871 21.6779 98.3205 22.587 98.5134C23.5062 98.7027 24.4824 98.6105 25.5155 98.2368C26.7192 97.8015 27.592 97.1568 28.1339 96.303C28.6894 95.4555 28.8857 94.4771 28.7226 93.3677L27.3233 93.8738C27.3987 94.5839 27.2563 95.2252 26.8963 95.7978C26.5499 96.3768 25.9554 96.8187 25.1128 97.1234C24.3605 97.3955 23.64 97.4576 22.9513 97.3097C22.2663 97.1719 21.6503 96.8332 21.1035 96.2937C20.5704 95.7605 20.1406 95.0426 19.8141 94.1398C19.4875 93.2371 19.3568 92.4053 19.4219 91.6444C19.5007 90.89 19.7574 90.2357 20.1922 89.6814C20.6305 89.1372 21.2259 88.729 21.9782 88.4569C22.8207 88.1522 23.5567 88.1015 24.1861 88.3049C24.8291 88.5147 25.347 88.9115 25.7397 89.4954L27.1389 88.9893C26.5619 88.0524 25.7888 87.4359 24.8196 87.1399C23.8605 86.8403 22.7791 86.9081 21.5754 87.3435Z" fill="white"/>
<path d="M27.9188 84.4522L34.5412 93.4846L37.4574 91.3465C38.1628 90.8293 38.654 90.2906 38.931 89.7304C39.208 89.1701 39.3058 88.609 39.2244 88.047C39.1431 87.4851 38.9226 86.9589 38.5631 86.4686C38.1469 85.9008 37.6167 85.5025 36.9728 85.2737C36.3374 85.0385 35.6278 85.0628 34.8439 85.3466L33.9704 80.0152L32.693 80.9518L33.5948 86.0243L33.5174 86.081L31.7368 87.3866L29.0026 83.6575L27.9188 84.4522ZM32.3612 88.2382L34.116 86.9516C34.8128 86.4407 35.4433 86.2363 36.0076 86.3385C36.5718 86.4406 37.0463 86.754 37.4311 87.2787C37.8221 87.8121 37.972 88.3503 37.8808 88.8933C37.8045 89.4387 37.4093 89.9731 36.6953 90.4966L34.9534 91.7737L32.3612 88.2382Z" fill="white"/>
<path d="M37.4365 74.3547C36.7694 75.2276 36.374 76.1403 36.2501 77.0929C36.1413 78.0434 36.2918 78.9706 36.7018 79.8746C37.1183 80.7702 37.7799 81.5645 38.6868 82.2575C39.5936 82.9505 40.5295 83.3771 41.4945 83.5373C42.4745 83.6955 43.4087 83.5973 44.2973 83.2426C45.1923 82.8795 45.9734 82.2615 46.6405 81.3885C47.3141 80.5071 47.7054 79.5912 47.8142 78.6406C47.9296 77.6816 47.779 76.7544 47.3625 75.8588C46.9546 74.9698 46.2972 74.1787 45.3903 73.4857C44.4835 72.7927 43.5433 72.3628 42.5699 72.1962C41.5964 72.0295 40.6621 72.1277 39.7671 72.4908C38.887 72.852 38.1101 73.4732 37.4365 74.3547ZM38.3773 75.0736C38.876 74.421 39.4573 73.959 40.1211 73.6877C40.7998 73.4144 41.5141 73.3493 42.2637 73.4927C43.0283 73.634 43.792 73.9961 44.5548 74.579C45.3176 75.1619 45.8633 75.8005 46.192 76.4947C46.5271 77.1804 46.6477 77.8834 46.5537 78.6036C46.4747 79.3219 46.1858 80.0073 45.6871 80.6599C45.1884 81.3125 44.5996 81.7754 43.9209 82.0488C43.257 82.3201 42.5471 82.3884 41.7909 82.2535C41.0413 82.1102 40.285 81.7471 39.5223 81.1642C38.7595 80.5813 38.2063 79.9437 37.8627 79.2515C37.534 78.5573 37.4092 77.8511 37.4882 77.1328C37.5822 76.4126 37.8786 75.7262 38.3773 75.0736Z" fill="white"/>
<path d="M39.9584 68.6254L50.4128 72.6435L50.895 71.3889L41.4412 67.7554L43.3125 62.8866L42.3119 62.5021L39.9584 68.6254Z" fill="white"/>
<path d="M42.6851 59.2259L53.418 62.4267L53.8021 61.1388L44.0965 58.2444L45.5871 53.2459L44.5598 52.9395L42.6851 59.2259Z" fill="white"/>
<path d="M40.3961 43.492L50.2789 38.2224L48.6604 35.187C47.732 33.4457 46.607 32.4015 45.2857 32.0544C43.9593 31.6979 42.5243 31.9312 40.9807 32.7542C39.4653 33.5622 38.486 34.6162 38.0429 35.9163C37.6042 37.2019 37.8491 38.7153 38.7775 40.4566L40.3961 43.492ZM40.752 41.7791L39.7809 39.9579C39.269 38.9978 39.0178 38.1526 39.0273 37.4223C39.0411 36.6775 39.2746 36.0271 39.7277 35.4713C40.1902 34.9104 40.8261 34.4141 41.6356 33.9825C42.4639 33.5409 43.2397 33.2843 43.9632 33.2129C44.6867 33.1414 45.3615 33.3074 45.9876 33.7109C46.6088 34.105 47.1753 34.7821 47.6872 35.7422L48.6583 37.5634L40.752 41.7791Z" fill="white"/>
<path d="M31.8369 31.6375C32.606 32.4221 33.4532 32.9434 34.3784 33.2015C35.3037 33.4445 36.243 33.4275 37.1961 33.1503C38.1418 32.8656 39.0222 32.3237 39.8372 31.5247C40.6522 30.7257 41.2077 29.86 41.5036 28.9277C41.7996 27.9802 41.8354 27.0415 41.6108 26.1115C41.3787 25.1739 40.8782 24.3128 40.109 23.5282C39.3325 22.736 38.4815 22.2184 37.5561 21.9754C36.6233 21.7248 35.6841 21.7418 34.7384 22.0266C33.8003 22.3039 32.9238 22.842 32.1087 23.641C31.2937 24.44 30.7344 25.3094 30.4309 26.2493C30.1274 27.1891 30.0917 28.1278 30.3237 29.0654C30.5559 29.988 31.0603 30.8453 31.8369 31.6375ZM32.6824 30.8087C32.1074 30.2221 31.7329 29.581 31.5588 28.8854C31.3848 28.1746 31.4221 27.4584 31.6706 26.7368C31.9193 26 32.3865 25.2957 33.072 24.6236C33.7575 23.9516 34.4672 23.5023 35.2012 23.2758C35.9276 23.0416 36.6406 23.0223 37.3401 23.2178C38.0398 23.3983 38.6771 23.7817 39.2521 24.3683C39.8271 24.9548 40.2016 25.6034 40.3755 26.3142C40.5496 27.0098 40.5161 27.7223 40.2751 28.4516C40.0265 29.1732 39.5595 29.87 38.8739 30.5421C38.1884 31.2141 37.4786 31.671 36.7446 31.9126C36.0106 32.1391 35.2938 32.1622 34.5942 31.9817C33.8946 31.7862 33.2574 31.3952 32.6824 30.8087Z" fill="white"/>
<path d="M25.44 26.4415L33.5943 18.1504L32.3374 17.4477L25.5364 24.6624L27.8264 14.926L26.5275 14.1999L19.5031 21.2897L22.0584 11.7016L20.8015 10.999L18.0738 22.3054L19.4145 23.0548L26.2594 16.2863L24.135 25.6937L25.44 26.4415Z" fill="white"/>
<path d="M14.7373 21.3996L17.2267 10.4798L15.9163 10.181L8.10256 17.606L10.0976 8.85453L8.78725 8.5558L6.29785 19.4756L7.60823 19.7744L15.422 12.3494L13.4269 21.1009L14.7373 21.3996Z" fill="white"/>
</svg>
