<svg width="42" height="48" viewBox="0 0 42 48" fill="none" xmlns="http://www.w3.org/2000/svg">
<path d="M41.8247 44.7461V10.1598V10.1161C41.7974 9.47769 41.5519 8.91015 41.0989 8.45174C40.9953 8.34806 40.8916 8.24438 40.7879 8.1407C40.3186 7.67686 39.8547 7.20755 39.3854 6.73822C38.0375 5.39033 36.6896 4.04244 35.3364 2.68917L33.8302 1.18302C33.4046 0.757377 33.0117 0.342643 32.4169 0.13528C31.8111 -0.0720819 31.0308 0.0206875 30.3978 0.0206875H2.35438C2.21249 0.0206875 2.06516 0.0152305 1.92328 0.0206875C0.842811 0.0479726 0.0133019 0.899261 0.00242534 1.97976C-0.00303168 2.4436 0.00242534 2.90744 0.00242534 3.37125V45.2917C0.00242534 46.0393 -0.0466871 46.7269 0.493555 47.3545C1.10474 48.0639 1.95061 47.9984 2.77453 47.9984H39.3575H39.8705C40.951 47.9875 41.8022 47.158 41.8351 46.0776C41.8351 45.6355 41.8241 45.1881 41.8241 44.746L41.8247 44.7461ZM17.0063 8.64308C18.3596 7.09872 20.7498 6.72772 22.6543 7.29519C23.5875 7.5735 24.4333 8.11373 25.0281 8.89404C25.7047 9.78899 25.9721 10.9022 25.9831 12.0045V12.01C25.9667 14.5093 24.5315 17.2924 21.9504 17.9472C19.6966 18.5201 17.5848 17.085 16.5916 15.115C15.5821 13.1341 15.4674 10.3947 17.0063 8.64308ZM10.7417 25.2323C10.7417 24.3537 10.9982 23.5079 11.5439 22.8094C11.975 22.2528 12.5371 21.8817 13.1701 21.6034C14.3816 21.0686 15.593 20.5284 16.8044 19.9936C17.2137 19.8135 17.623 19.617 18.0432 19.4479C18.5507 19.2405 18.7799 19.688 19.0418 20.0263C19.6694 20.8449 20.2914 21.6634 20.919 22.4819C21.6338 21.5597 22.3487 20.6375 23.0635 19.7152C23.2 19.5406 23.3255 19.3714 23.5819 19.3823C23.7184 19.3878 23.8603 19.4696 23.9858 19.5242C24.4987 19.7534 25.0116 19.9826 25.5246 20.2118C26.627 20.7029 27.7347 21.194 28.837 21.6906C29.661 22.0617 30.3485 22.7111 30.7306 23.535C31.0307 24.1789 31.0908 24.8392 31.0908 25.5377V28.9919C31.0908 29.1393 30.9653 29.2648 30.8179 29.2648H30.7852C29.9939 29.3248 29.1753 29.2648 28.3787 29.2648H11.0142C10.9323 29.2648 10.8668 29.2375 10.8286 29.1884L10.8232 29.1829C10.8232 29.1829 10.8177 29.1829 10.8177 29.1775C10.774 29.1338 10.7413 29.0738 10.7413 28.9919C10.7413 27.7313 10.7359 26.4817 10.7413 25.232L10.7417 25.2323ZM27.6422 42.5908H14.1803C13.4163 42.5908 12.8488 41.9687 12.816 41.2265C12.7833 40.4898 13.4654 39.8623 14.1803 39.8623H27.6422C28.4062 39.8623 28.9738 40.4898 29.0065 41.2265C29.0392 41.9632 28.3571 42.5908 27.6422 42.5908ZM33.6013 36.4681H33.5576C32.5317 36.4899 31.5058 36.4681 30.4799 36.4681H8.22092C7.45695 36.4681 6.8894 35.846 6.85667 35.1039C6.82393 34.3672 7.50604 33.7396 8.22092 33.7396H8.26458C9.29046 33.7178 10.3163 33.7396 11.3423 33.7396H33.5963C34.3603 33.7396 34.9278 34.3672 34.9605 35.1039C34.9987 35.8405 34.3166 36.4681 33.6018 36.4681H33.6013ZM32.8373 9.2379H32.7282H32.7063H32.7009C32.7063 9.2379 32.7063 9.24335 32.69 9.2379C32.7063 9.24881 32.7009 9.24881 32.679 9.2379H32.6681V9.24335L32.6627 9.2379C32.6518 9.2379 32.6408 9.2379 32.6245 9.23244H32.6572L32.6518 9.22698C32.6408 9.22153 32.6354 9.22153 32.6245 9.21607C32.6299 9.21607 32.6354 9.22153 32.6408 9.22153C32.6354 9.21607 32.6299 9.21061 32.6245 9.21061C32.6245 9.21061 32.6299 9.21061 32.6299 9.21607L32.619 9.20515C32.619 9.21061 32.6245 9.21061 32.6245 9.21607C32.6245 9.21607 32.6136 9.21061 32.6081 9.1997L32.6026 9.19424V9.21061V9.18878C32.5863 9.17241 32.5808 9.1615 32.6026 9.18333V9.17241C32.5917 9.14513 32.5917 9.13967 32.6026 9.1615V9.13967V3.7045L38.1305 9.23237H32.8372L32.8373 9.2379Z" fill="#8E3468"/>
</svg>
