<svg width="41" height="48" viewBox="0 0 41 48" fill="none" xmlns="http://www.w3.org/2000/svg">
<path d="M40.1033 11.5557L29.1751 0.418352C28.9136 0.156836 28.5999 0 28.2341 0H14.5346C11.8155 0 9.56732 2.2482 9.56732 4.96728V21.5949C8.31231 21.9086 7.31911 22.4837 6.5346 23.3726C5.64575 24.4708 5.17521 25.8301 5.2796 27.242V28.1309C4.96593 28.6014 4.80909 29.1765 4.80909 29.7517V31.582C4.80909 32.3661 5.12276 33.0981 5.64578 33.6733C5.95946 34.7715 6.48248 35.8172 7.10985 36.7582V37.8039L3.03138 40.0521C1.30587 40.9931 0.208008 42.8233 0.208008 44.8104V45.1241C0.208008 46.6928 1.51521 48 3.08395 48H20.9665C22.5352 48 23.8424 46.6928 23.8424 45.1241L23.842 44.9154C23.7899 43.6604 23.3715 42.51 22.6395 41.569H35.5024C38.2215 41.569 40.4697 39.3208 40.4697 36.6017L40.47 12.4969C40.47 12.1307 40.3132 11.817 40.1038 11.5555L40.1033 11.5557ZM37.9072 36.6017C37.9072 37.9089 36.8615 38.9546 35.5543 38.9546H18.5607L16.4693 37.9089V36.7586L16.574 36.6017C17.1492 35.8176 17.5676 34.9809 17.9334 34.092C18.7701 33.5168 19.2406 32.5758 19.2406 31.5823L19.2403 29.752C19.2403 29.1768 19.0834 28.6538 18.7697 28.1312V27.2423C18.8744 25.8304 18.4036 24.4189 17.5147 23.3729C16.3644 22.0657 14.5341 21.3859 12.1813 21.3337L12.1816 4.96749C12.1816 3.66029 13.2273 2.61462 14.5345 2.61462H26.8745V12.9154C26.8745 13.6474 27.4497 14.2226 28.1817 14.2226H37.9073L37.9072 36.6017Z" fill="#414997"/>
</svg>
