<svg width="59" height="48" viewBox="0 0 59 48" fill="none" xmlns="http://www.w3.org/2000/svg">
<path d="M56.2929 16.448H53.9208L51.1924 6.84022C50.8367 5.65417 49.591 4.94215 48.405 5.29832L48.2862 5.35748L46.329 1.26511C45.7954 0.138151 44.431 -0.336314 43.3044 0.256926L12.0491 15.4991L8.84663 16.3886H2.2038C0.899022 16.3886 -0.109217 17.3968 0.00950532 18.5829L2.79699 46.1611C2.91572 47.1693 3.86432 47.9996 4.99128 47.9996L53.5646 48C54.6916 48 55.6406 47.2289 55.7589 46.1616L58.4869 18.6426C58.6056 17.4561 57.5974 16.4479 56.2926 16.4479L56.2929 16.448ZM43.8975 1.26515C44.4312 1.0281 45.0836 1.206 45.321 1.73967L47.2191 5.59449L18.3954 13.72L43.8975 1.26515ZM48.8201 6.42486C48.8793 6.42486 48.9388 6.3657 48.998 6.3657C49.4725 6.30654 49.947 6.66232 50.125 7.13683L52.7346 16.4484L13.2354 16.448L48.8201 6.42486Z" fill="#8F8A4D"/>
</svg>
