<svg width="120" height="120" viewBox="0 0 120 120" fill="none" xmlns="http://www.w3.org/2000/svg">
<rect width="120" height="120" rx="12" fill="#E5FEEF"/>
<path d="M74.7203 81.3625C74.5832 82.8393 73.3487 84 71.8299 84H44.401C42.7974 84 41.5 82.7022 41.5 81.099V43.1213C41.5 41.6021 42.6603 40.368 44.1375 40.231L44.1371 76.8794C44.1371 79.3481 46.1518 81.3628 48.6205 81.3628L74.7203 81.3625Z" fill="#30724C"/>
<path d="M68.6643 47.0768C68.2274 47.0768 67.8731 46.7225 67.8731 46.2856V36H48.6212C47.0211 36 45.7202 37.3013 45.7202 38.901V76.8786C45.7202 78.4787 47.0215 79.7796 48.6212 79.7796H76.0492C77.6492 79.7796 78.9501 78.4783 78.9501 76.8786V47.077L68.6643 47.0768ZM71.9885 58.7966C71.9683 58.8167 61.2598 69.5262 61.258 69.5271C60.1559 70.6291 58.2567 70.6284 57.155 69.5271L52.6809 65.0522C51.5495 63.9208 51.5495 62.0806 52.6809 60.9493C53.7791 59.8501 55.6895 59.8514 56.7849 60.9479L59.2069 63.3695L67.8844 54.692C69.0157 53.5606 70.8556 53.5606 72.0057 54.7114C73.108 55.8319 73.1013 57.6834 71.9883 58.7964L71.9885 58.7966Z" fill="#30724C"/>
<path d="M69.0039 55.8116L59.7672 65.0483C59.4581 65.3574 58.9572 65.3574 58.6482 65.0483L55.6667 62.0675C55.1481 61.549 54.2884 61.5808 53.8017 62.0679C53.2863 62.5836 53.2863 63.4204 53.8006 63.9343L58.2748 68.4092C58.7887 68.9231 59.6258 68.9224 60.1401 68.4092L70.8706 57.6787C71.382 57.1672 71.3817 56.3251 70.8706 55.8141C70.3408 55.297 69.5142 55.3005 69.0042 55.8116L69.0039 55.8116Z" fill="#30724C"/>
</svg>
