<svg width="121" height="120" viewBox="0 0 121 120" fill="none" xmlns="http://www.w3.org/2000/svg">
<rect x="0.5" width="120" height="120" rx="12" fill="#FFECEC"/>
<path d="M84.8713 52.9455L79.6192 51.8009C78.8784 51.6661 78.2049 51.195 77.6667 50.5891C72.2797 43.8555 71.2699 43.4516 69.8557 43.3839L64.8055 43.0472C64.0648 42.98 63.1893 42.98 56.0518 45.7404C54.3012 46.4139 52.7522 47.6257 51.6752 49.1743L47.7698 54.8981C47.5006 55.2349 47.3658 55.6388 47.2982 56.0427C46.1536 55.9079 45.0089 56.3795 44.3353 57.457L43.6618 58.5345L41.3048 57.1202C40.5641 56.6486 39.5542 56.9182 39.0827 57.6589L34.2346 65.6043C33.763 66.345 34.0326 67.3549 34.7733 67.8263L47.2316 75.301C47.9723 75.7726 48.9822 75.503 49.4536 74.7623L54.3018 66.817C54.7734 66.0763 54.5038 65.0664 53.763 64.5949L51.4061 63.1806L52.0796 62.1031C52.6855 61.1605 52.6184 60.0159 52.0796 59.0732C52.3487 58.8712 52.6184 58.6016 52.8875 58.3325L56.7929 52.6087C57.1969 52.07 57.7356 51.666 58.3415 51.3969C58.9474 51.1949 59.419 50.993 59.9577 50.791L57.6007 58.8711C56.7928 61.5643 57.1968 64.5272 58.7454 66.8842L73.1551 90.3169C73.8287 91.3943 74.9733 92.0002 76.118 92.0002C76.7916 92.0002 77.3975 91.8654 78.0034 91.4615C79.6868 90.4517 80.1584 88.2967 79.148 86.6134L67.4316 67.8268L72.2797 53.6864C72.4817 53.9555 72.6837 54.1579 72.8856 54.4271C74.2322 56.1777 76.1852 57.3223 78.3397 57.7938L83.5918 58.9385C85.2752 59.2753 86.8914 58.2649 87.2277 56.5815C87.5649 54.9657 86.4875 53.3495 84.8712 52.9456L84.8713 52.9455ZM49.9916 60.8913L49.3181 61.9688L45.7493 59.8138L46.4228 58.7363C46.5576 58.4672 46.9616 58.3996 47.2307 58.5344L49.8568 60.1506C50.0588 60.2177 50.1259 60.6217 49.9916 60.8913Z" fill="#702424"/>
<path d="M69.0393 28.0406C72.7734 28.4473 75.4703 31.8042 75.0637 35.5379C74.6569 39.272 71.3 41.9689 67.5664 41.5622C63.8323 41.1555 61.1354 37.799 61.542 34.0649C61.9488 30.3313 65.3052 27.6339 69.0393 28.0406Z" fill="#702424"/>
<path d="M52.7524 87.2861C52.0789 89.1043 53.0216 91.1244 54.8397 91.7976C55.2436 91.9324 55.6476 91.9995 56.0515 91.9995C57.4658 91.9995 58.8124 91.124 59.351 89.7102L62.9869 79.8119L58.2736 72.2705L52.7524 87.2861Z" fill="#702424"/>
</svg>
