<svg width="120" height="120" viewBox="0 0 120 120" fill="none" xmlns="http://www.w3.org/2000/svg">
<rect width="120" height="120" rx="12" fill="#F1F2FF"/>
<path fill-rule="evenodd" clip-rule="evenodd" d="M57.1618 79.9028C53.6596 79.5114 50.7234 78.3821 48.3427 76.7819L39.1204 83.306C39.0314 83.369 38.9084 83.3483 38.8454 83.2593L36.0366 79.3035C35.9732 79.2145 35.9943 79.0911 36.0833 79.0277L81.6689 46.7782C81.7578 46.7156 81.8809 46.7363 81.9439 46.8253L84.7529 50.7811C84.8159 50.8701 84.7952 50.9935 84.7062 51.0565L84.7059 51.0569L70.6866 60.9743C72.826 62.6744 74.25 65.0687 74.25 68.6689C74.25 73.8342 71.022 79.0967 62.415 79.9374V83.8024C62.415 83.9114 62.3268 84 62.2175 84H57.3595C57.2505 84 57.1619 83.9114 57.1619 83.8024L57.1618 79.9028ZM57.1618 40.1868V36.1976C57.1618 36.0886 57.2504 36 57.3593 36H62.2174C62.3267 36 62.4149 36.0886 62.4149 36.1976V40.1927C67.0024 40.7249 70.6565 42.5741 73.3779 45.4355L70.4684 48.9785C67.5588 45.7839 63.4854 44.332 59.2378 44.332C54.5825 44.332 51.2656 46.8294 51.2656 50.4888C51.2656 54.451 56.0191 55.5782 61.2029 56.9896L55.714 60.7675C50.7225 59.2056 46.2614 56.8695 46.2614 50.779C46.2614 45.0878 50.7863 41.0096 57.1627 40.187L57.1618 40.1868ZM66.1259 64.2012L52.4909 73.8472C54.6295 74.9921 57.1873 75.7553 60.1106 75.7553C67.0351 75.7553 69.2462 72.0377 69.2462 69.0756C69.2462 66.7649 68.0164 65.2839 66.1261 64.2012H66.1259Z" fill="#414997"/>
</svg>
