<svg width="120" height="120" viewBox="0 0 120 120" fill="none" xmlns="http://www.w3.org/2000/svg">
<rect width="120" height="120" rx="12" fill="#FCFAE8"/>
<path d="M43.4631 68.6255C43.316 68.4784 43.1155 68.3955 42.9076 68.3955C42.699 68.3955 42.4991 68.4784 42.3514 68.6255L38.2306 72.7462V72.7469C38.0829 72.8939 38 73.0938 38 73.3024C38 73.511 38.0829 73.7109 38.2306 73.8586L56.1422 91.7701C56.2892 91.9172 56.4891 92.0001 56.6977 92.0001C56.9063 92.0001 57.1062 91.9172 57.2539 91.7701L61.3746 87.6494V87.6487C61.5217 87.503 61.6039 87.3051 61.6039 87.0979C61.6039 86.8906 61.5217 86.6928 61.3746 86.547L43.4631 68.6255Z" fill="#8F8A4D"/>
<path d="M81.165 64.6394C80.7405 64.2149 80.1643 63.9776 79.5646 63.9776C78.9643 63.9749 78.3873 64.2135 77.9642 64.6394L74.7152 67.8883C74.3656 68.2373 73.7994 68.2373 73.4498 67.8883C73.1008 67.5387 73.1008 66.9724 73.4498 66.6228L76.6987 63.3831L77.5036 62.5682L77.5042 62.5689C78.4274 61.6503 78.4321 60.1575 77.5136 59.2337C76.595 58.3105 75.1022 58.3058 74.1784 59.2243L70.9201 62.4827C70.5725 62.8276 70.0122 62.8276 69.6646 62.4827C69.3183 62.1317 69.3183 61.5681 69.6646 61.2179L73.8628 57.0196L73.8622 57.0203C74.6671 56.1198 74.631 54.7481 73.7793 53.8917C72.9283 53.0353 71.5565 52.9905 70.6514 53.7901L67.393 57.0196V57.0203C67.042 57.3559 66.4865 57.3492 66.1442 57.0043C65.8013 56.6593 65.7986 56.1031 66.1375 55.7548L80.044 41.8964C80.7146 41.2118 80.9699 40.2211 80.7119 39.2971C80.4545 38.3739 79.7238 37.6579 78.7953 37.4185C77.8667 37.1799 76.8813 37.4546 76.2102 38.1398L58.0009 56.3491C57.7522 56.6052 57.3732 56.6861 57.0416 56.5537C56.71 56.422 56.4907 56.1025 56.4867 55.7455L56.1224 43.8713C56.0201 42.7201 55.0775 41.8256 53.9229 41.7842C52.7684 41.7434 51.7636 42.5677 51.5798 43.7082L49.0208 65.099C48.9947 65.2955 48.9031 65.4773 48.762 65.6164L45.8867 68.4917L61.6136 84.2667L64.3164 81.5545C64.392 81.4796 64.4796 81.4181 64.5752 81.372L67.9103 79.829C69.486 79.1037 70.9207 78.1043 72.1467 76.8776L81.165 67.8492C81.5955 67.4281 81.8368 66.8512 81.8355 66.2488C81.8355 65.6445 81.5941 65.0649 81.165 64.639L81.165 64.6394Z" fill="#8F8A4D"/>
</svg>
