<svg width="120" height="120" viewBox="0 0 120 120" fill="none" xmlns="http://www.w3.org/2000/svg">
<rect width="120" height="120" rx="12" fill="#FFF1F9"/>
<path d="M66.342 49.1748C66.5947 49.4275 66.7462 49.7811 66.6451 50.1349L65.5838 55.238C65.2807 56.6024 66.7458 57.6632 68.009 57.0067L72.5059 54.4299C72.809 54.2279 73.2132 54.2279 73.5163 54.4299L78.0132 57.0067C79.2259 57.714 80.6911 56.6528 80.4384 55.238L79.3772 50.1349C79.3268 49.7811 79.4276 49.4276 79.6803 49.1748L83.5202 45.6884C84.5307 44.7283 83.9749 43.0105 82.6109 42.859L77.4571 42.3032C77.1032 42.2528 76.8001 42.0505 76.6486 41.697L74.4761 36.9474C73.9203 35.6842 72.1014 35.6842 71.4951 36.9474L69.373 41.697C69.2215 42.0508 68.9184 42.2528 68.5645 42.3032L63.4621 42.859C62.0474 43.0106 61.4916 44.7284 62.5528 45.6884L66.342 49.1748Z" fill="#8E3468"/>
<path d="M52.9933 37H38.9612C37.321 37 36 38.321 36 39.9612V54.0388C36 55.679 37.321 57 38.9612 57H53.0388C54.679 57 56 55.679 56 54.0388L56.0003 39.9612C55.9549 38.321 54.6334 37 52.9933 37Z" fill="#8E3468"/>
<path d="M53.0318 62.0003H38.9679C37.324 62.0003 36 63.3244 36 64.9682V79.0321C36 80.676 37.324 82 38.9679 82H53.0775C54.7213 82 56.0453 80.676 56.0453 79.0321L56.0457 64.9682C56.0001 63.3244 54.6757 62 53.0319 62L53.0318 62.0003Z" fill="#8E3468"/>
<path d="M80.0321 62.0003H65.9682C64.3244 62.0003 63.0003 63.3244 63.0003 64.9682L63 79.0321C63 80.676 64.324 82 65.9679 82H80.0318C81.6756 82 82.9997 80.676 82.9997 79.0321V64.9682C82.9997 63.3244 81.6756 62 80.0318 62L80.0321 62.0003Z" fill="#8E3468"/>
</svg>
