<svg xmlns="http://www.w3.org/2000/svg" width="24" height="24" viewBox="0 0 24 24" fill="none">
  <g clip-path="url(#clip0_1825_98)">
    <path d="M0.600941 11.8563C0.600383 13.8728 1.12727 15.8417 2.12913 17.5771L0.505127 23.5066L6.57322 21.9156C8.25157 22.8292 10.132 23.308 12.043 23.3081H12.048C18.3564 23.3081 23.4915 18.1748 23.4942 11.8653C23.4955 8.80792 22.3059 5.93295 20.1446 3.76997C17.9836 1.60718 15.1097 0.415458 12.0475 0.414062C5.73843 0.414062 0.603639 5.54709 0.601034 11.8563" fill="url(#paint0_linear_1825_98)"/>
    <path d="M0.192552 11.8527C0.191901 13.9417 0.737669 15.981 1.77525 17.7786L0.0930176 23.9207L6.37869 22.2726C8.1106 23.2168 10.0606 23.7147 12.0447 23.7154H12.0499C18.5846 23.7154 23.9042 18.3975 23.907 11.8621C23.9081 8.69488 22.6757 5.71656 20.4372 3.47609C18.1984 1.23591 15.2217 0.00130233 12.0499 0C5.51404 0 0.195157 5.31721 0.192552 11.8527ZM3.93581 17.469L3.70111 17.0965C2.71451 15.5277 2.19376 13.7149 2.19451 11.8534C2.19665 6.4213 6.61748 2.00186 12.0536 2.00186C14.6861 2.00298 17.1602 3.02921 19.021 4.89116C20.8818 6.7533 21.9057 9.22865 21.905 11.8614C21.9026 17.2935 17.4817 21.7135 12.0499 21.7135H12.0459C10.2773 21.7126 8.54269 21.2376 7.02995 20.34L6.66995 20.1265L2.9399 21.1045L3.93581 17.4689V17.469Z" fill="url(#paint1_linear_1825_98)"/>
    <path d="M9.08605 6.89771C8.8641 6.4044 8.63052 6.39445 8.41945 6.3858C8.24661 6.37836 8.04903 6.37892 7.85163 6.37892C7.65405 6.37892 7.33303 6.45324 7.06168 6.74952C6.79005 7.04608 6.02466 7.76273 6.02466 9.22031C6.02466 10.678 7.08633 12.0866 7.23433 12.2845C7.38252 12.482 9.28391 15.5689 12.2953 16.7564C14.798 17.7433 15.3073 17.547 15.8504 17.4975C16.3937 17.4482 17.6034 16.7811 17.8501 16.0892C18.0971 15.3975 18.0971 14.8046 18.0231 14.6807C17.949 14.5572 17.7514 14.4831 17.4552 14.335C17.1588 14.1868 15.7022 13.4701 15.4307 13.3712C15.1591 13.2724 14.9616 13.2231 14.764 13.5198C14.5664 13.8159 13.9991 14.4831 13.8261 14.6807C13.6534 14.8787 13.4805 14.9034 13.1843 14.7552C12.8878 14.6065 11.9337 14.2941 10.8017 13.2849C9.92094 12.4996 9.32633 11.5298 9.1535 11.2331C8.98066 10.937 9.13498 10.7764 9.28354 10.6288C9.41666 10.496 9.57991 10.2828 9.72819 10.1099C9.87591 9.93687 9.92522 9.81343 10.024 9.61585C10.1229 9.41808 10.0734 9.24506 9.99945 9.09687C9.92522 8.94868 9.3495 7.48347 9.08605 6.89771Z" fill="white"/>
  </g>
  <defs>
    <linearGradient id="paint0_linear_1825_98" x1="1149.96" y1="2309.67" x2="1149.96" y2="0.414062" gradientUnits="userSpaceOnUse">
      <stop stop-color="#1FAF38"/>
      <stop offset="1" stop-color="#60D669"/>
    </linearGradient>
    <linearGradient id="paint1_linear_1825_98" x1="1190.79" y1="2392.07" x2="1190.79" y2="0" gradientUnits="userSpaceOnUse">
      <stop stop-color="#F9F9F9"/>
      <stop offset="1" stop-color="white"/>
    </linearGradient>
    <clipPath id="clip0_1825_98">
      <rect width="23.814" height="24" fill="white" transform="translate(0.0930176)"/>
    </clipPath>
  </defs>
</svg>