<svg width="200" height="200" viewBox="0 0 200 200" fill="none" xmlns="http://www.w3.org/2000/svg">
<rect width="200" height="200" rx="8" fill="url(#paint0_linear_401_81)"/>
<path d="M73.7867 54.3692C94.5577 38.6423 116.037 41.502 140.453 51.8692L117.953 87.7025C97.688 81.1708 87.1978 85.5541 81.2867 99.3692C78.2142 106.55 78.3795 112.12 81.2867 119.369C85.2601 129.277 93.6553 134.446 102.953 136.036H115.453L105.453 109.369L149.62 106.869L136.287 155.203H120.453V152.703C104.402 156.493 96.7737 156.701 86.2867 152.703C67.0739 145.263 56.534 137.5 51.2867 119.369C48.3916 109.366 51.2867 92.7025 51.2867 92.7025C54.1143 75.5479 59.9477 64.8475 73.7867 54.3692Z" fill="white"/>
<defs>
<linearGradient id="paint0_linear_401_81" x1="200" y1="0" x2="0" y2="200" gradientUnits="userSpaceOnUse">
<stop stop-color="#214E34"/>
<stop offset="1" stop-color="#20A357"/>
</linearGradient>
</defs>
</svg>

